<?xml version="1.0" standalone="no"?>
<!DOCTYPE svg PUBLIC "-//W3C//DTD SVG 1.1//EN" "http://www.w3.org/Graphics/SVG/1.1/DTD/svg11.dtd" >
<svg xmlns="http://www.w3.org/2000/svg">
<metadata>
This is a custom SVG webfont generated by Font Squirrel.
Copyright   : Copyright c 20052006 by Joshua Darden Inc All rights reserved
Foundry     : by Joshua Darden Inc
</metadata>
<defs>
<font id="OmnesMedium" horiz-adv-x="1024" >
<font-face units-per-em="2048" ascent="1638" descent="-410" />
<missing-glyph horiz-adv-x="348" />
<glyph unicode=" "  horiz-adv-x="348" />
<glyph unicode="&#x09;" horiz-adv-x="348" />
<glyph unicode="&#xa0;" horiz-adv-x="348" />
<glyph unicode="!" horiz-adv-x="532" d="M141 96v25q0 113 111 112h27q113 0 112 -112v-25q0 -111 -112 -110h-27q-111 -1 -111 110zM143 1212q-2 14 -1 27q0 98 98 98h51q101 0 101 -93q0 -15 -3 -32l-61 -757q-4 -37 -15.5 -53.5t-36.5 -16.5h-22q-37 0 -49 70z" />
<glyph unicode="&#x22;" horiz-adv-x="796" d="M115 1204q-2 17 -2 32q0 47 20 70q27 30 92 29q68 0 94 -29q20 -23 21 -70q0 -15 -2 -32l-49 -373q-8 -63 -49 -63h-27q-41 0 -49 63zM457 1204q-2 16 -2 31q0 48 21 71q28 30 93.5 29.5t92.5 -29.5q20 -23 20 -70q0 -15 -2 -32l-47 -373q-8 -63 -51 -63h-27 q-41 0 -49 63z" />
<glyph unicode="#" horiz-adv-x="1357" d="M18 403v21q0 72 88 72h205l103 333h-2h-2h-2h-2h-3h-2h-2h-2h-2h-2h-2h-2h-2h-2h-2h-2h-2h-4h-2h-2h-2h-2h-5h-2h-2h-4h-2h-4h-2h-2h-4h-2h-4h-2h-4h-2h-4h-5h-2h-4h-2h-4h-4h-2h-4h-4h-4h-2h-4h-21q-88 0 -88 72v19q0 72 88 71h205l104 340q0 8 27 8q35 0 66.5 -27.5 t31.5 -80.5q0 -25 -16 -78q-49 -162 -51 -162h307l102 340q4 8 29 8q35 0 65.5 -27.5t30.5 -80.5q0 -25 -16 -78l-49 -162h155q88 0 88 -69v-21q0 -72 -88 -72h-204l-103 -333h154q88 0 88 -70v-20q0 -72 -88 -72h-203l-104 -340q-4 -8 -29 -8q-35 0 -65.5 27.5t-30.5 80.5 q0 25 14 78l51 162h-305l-104 -340q0 -8 -27 -8q-35 0 -66.5 27.5t-31.5 80.5q0 29 16 78l49 162h-156q-88 -1 -88 69zM471 492h311l105 342h-312z" />
<glyph unicode="$" horiz-adv-x="1126" d="M72 246q0 33 21.5 60.5t44 39.5t26.5 8q49 -72 131 -123t184 -67v432q-80 20 -137 44t-116.5 64.5t-90.5 106.5t-31 154q0 143 102.5 243.5t268.5 124.5v101q0 96 82 96h14q43 0 62.5 -22.5t19.5 -73.5v-97q166 -14 267.5 -83.5t101.5 -145.5q0 -33 -22.5 -61.5t-46 -42 t-25.5 -9.5q-98 139 -285 168v-415q86 -20 147.5 -45t126 -67t98.5 -109.5t34 -157.5q0 -152 -109 -255.5t-291 -125.5v-101q0 -98 -84 -98h-12q-43 0 -62.5 22.5t-19.5 75.5v101q-176 18 -287.5 97t-111.5 161zM305 969q0 -72 45 -113t135 -70v373q-82 -18 -131 -69 t-49 -121zM637 164q94 16 149.5 68.5t55.5 128t-52.5 120.5t-152.5 76v-393z" />
<glyph unicode="%" horiz-adv-x="1505" d="M59 1014v18q0 133 91.5 223.5t228.5 90.5t228 -88.5t91 -221.5v-18q0 -133 -92 -223t-229 -90t-227.5 88t-90.5 221zM156 57q0 47 59 109l1030 1186q2 2 6 1q7 0 21 -3q23 -6 45 -25.5t22 -48.5q0 -45 -57 -111l-1032 -1183q-2 -3 -8 -3q-7 0 -20 4q-24 7 -45 27t-21 47z M215 1010q0 -76 46 -126t118 -50t117 49t45 127v30q0 78 -46 128.5t-118 50.5t-117 -49.5t-45 -129.5v-30zM807 297v18q0 133 92 223.5t229.5 90.5t227.5 -88t90 -222v-18q0 -133 -91 -223t-228.5 -90t-228.5 88t-91 221zM965 293q0 -76 46 -126t117 -50q70 0 116 49t46 127 v31q0 78 -46 128t-117.5 50t-116.5 -49.5t-45 -128.5v-31z" />
<glyph unicode="&#x26;" horiz-adv-x="1366" d="M43 373q0 279 334 381q-119 127 -119 268t103.5 235.5t267.5 94.5q150 0 247 -88t97 -224q0 -231 -307 -323l309 -279q57 102 100 269q33 115 117 114q29 0 51.5 -13t31.5 -25.5t7 -18.5q-55 -250 -184 -438l278 -250q1 -1 2 -3q0 -6 -7 -21q-9 -22 -37.5 -42t-69.5 -20 q-74 0 -134 61l-141 135q-195 -213 -467 -213q-219 0 -349 106t-130 294zM240 389q0 -119 81.5 -187.5t215.5 -68.5q190 0 333 164l-397 358q-233 -76 -233 -266zM449 1022q0 -109 106 -215q127 35 185.5 88t58.5 135q0 72 -49.5 121t-122.5 49q-84 0 -131 -50t-47 -128z " />
<glyph unicode="'" horiz-adv-x="454" d="M115 1204q-2 17 -2 32q0 47 20 70q27 30 92 29q68 0 94 -29q20 -23 21 -70q0 -15 -2 -32l-49 -373q-8 -63 -49 -63h-27q-41 0 -49 63z" />
<glyph unicode="(" horiz-adv-x="768" d="M88 465q0 184 54.5 350t138.5 277.5t185 177t198 65.5q94 0 94 -82q0 -20 -12.5 -43.5t-18.5 -27.5q-201 -45 -316.5 -246t-115.5 -469q0 -274 115.5 -474t316.5 -247q6 -2 18.5 -24.5t12.5 -45.5q0 -82 -94 -82q-96 0 -197.5 63.5t-185.5 173.5t-138.5 278t-54.5 356z " />
<glyph unicode=")" horiz-adv-x="768" d="M10 -324q0 23 12.5 45.5t18.5 24.5q201 47 316.5 247t115.5 474q0 268 -115.5 469t-316.5 246q-6 4 -18.5 27.5t-12.5 43.5q0 82 94 82q96 0 197.5 -65.5t185.5 -177t138.5 -277.5t54.5 -350q0 -188 -54.5 -356t-138.5 -278t-185 -173.5t-198 -63.5q-94 0 -94 82z" />
<glyph unicode="*" horiz-adv-x="802" d="M46 1048q-3 8 -3 18q0 12 4 26l2 8q12 39 57 38q10 0 21 -1l199 -50l16 199q4 39 17.5 51.5t41.5 12.5h9q27 0 41 -13.5t18 -50.5q14 -197 14 -199l197 50q11 2 21 1q45 0 59 -38l2 -8q4 -14 4 -26q0 -10 -3 -18q-7 -17 -42 -32l-189 -78l109 -174q14 -23 14 -42 q0 -26 -26 -44l-6 -4q-16 -12 -33 -12q-25 0 -51 28l-136 158l-133 -158q-26 -28 -52 -27l-34 11l-6 4q-26 15 -26 42q0 19 14 44l106 174l-184 78q-35 15 -42 32z" />
<glyph unicode="+" horiz-adv-x="1101" d="M80 535v12q0 76 88 76h297v303q0 88 78 88h16q78 0 78 -88v-303h297q88 0 88 -76v-12q0 -76 -88 -76h-297v-322q0 -88 -78 -88h-16q-78 0 -78 88v322h-297q-88 0 -88 76z" />
<glyph unicode="," horiz-adv-x="454" d="M27 -203l110 348q16 53 36 75t69 22h18q86 0 86 -97v-10q0 -61 -47 -123l-170 -262q-13 -18 -37 -18q-14 0 -31 6q-37 13 -37 43q0 7 3 16z" />
<glyph unicode="-" horiz-adv-x="804" d="M84 483v29q0 37 22.5 58.5t65.5 21.5h461q88 0 88 -80v-29q0 -78 -88 -77h-461q-88 -1 -88 77z" />
<glyph unicode="." horiz-adv-x="454" d="M102 96v25q0 113 111 112h27q113 0 112 -112v-25q0 -111 -112 -110h-27q-111 -1 -111 110z" />
<glyph unicode="/" horiz-adv-x="694" d="M8 -319q0 29 17 81l487 1569q0 8 41 8q113 0 113 -94q0 -27 -17 -82l-485 -1569q0 -8 -41 -8q-115 1 -115 95z" />
<glyph unicode="0" horiz-adv-x="1300" d="M98 594v135q0 287 148.5 455t402.5 168q258 0 405.5 -166t147.5 -455v-133q0 -289 -148.5 -457t-404.5 -168q-258 0 -404.5 166t-146.5 455zM311 590q0 -209 89 -323.5t249 -114.5q164 0 253 113.5t89 322.5v147q0 209 -90 326t-252 117t-250 -115t-88 -324v-149z" />
<glyph unicode="1" horiz-adv-x="749" d="M41 1122q0 31 13.5 57.5t27.5 38t18 9.5q51 -47 121 -47q66 0 112 44t54 111h72q92 0 92 -96v-1153q0 -96 -92 -96h-27q-90 0 -90 96v950q-55 -55 -137 -55q-72 0 -118 39t-46 102z" />
<glyph unicode="2" horiz-adv-x="1095" d="M78 115v51q0 96 32.5 175t100.5 138.5t126 96t150 81.5q190 94 242 136q88 70 88 159q0 102 -71.5 160.5t-198.5 58.5q-254 1 -324 -253q-6 0 -37 -2h-2q-30 0 -64 27q-36 28 -36 77q0 119 130 225.5t347 106.5t340 -105.5t123 -290.5q0 -86 -29.5 -151.5t-93 -116.5 t-118 -82t-148.5 -74q-90 -41 -141.5 -68.5t-107.5 -69.5t-83 -95t-29 -119h672q100 0 101 -82v-12q0 -86 -101 -86h-737q-70 0 -100.5 27t-30.5 88z" />
<glyph unicode="3" horiz-adv-x="1118" d="M33 270q0 49 30.5 77t60.5 33t32 -1q39 -113 135 -173.5t229 -60.5q141 0 224 63.5t83 170.5q0 233 -303 233h-94q-100 0 -100 76v12q0 76 96 76h123q121 0 184.5 53.5t63.5 147.5q0 96 -74 150.5t-205 54.5q-236 0 -323 -201q-2 -6 -33 0t-60.5 32.5t-29.5 71.5 q0 94 129 180.5t319 86.5q229 0 355 -94.5t126 -264.5q0 -215 -225 -280q258 -88 258 -342q0 -186 -136 -292t-378 -106q-221 0 -354 96.5t-133 200.5z" />
<glyph unicode="4" horiz-adv-x="1216" d="M68 453v45q0 49 59 131l473 612q41 57 75 75.5t105 18.5q86 0 122 -31.5t36 -105.5v-672h145q92 0 93 -82v-10q0 -80 -93 -80h-145v-268q0 -96 -90 -96h-23q-39 0 -62.5 26.5t-23.5 69.5v268h-2h-4h-2h-4h-2h-2h-4h-2h-4h-2h-4h-2h-5h-2h-2h-4h-2h-4h-2h-4h-2h-4h-2h-4 h-2h-4h-3h-4h-2h-4h-2h-4h-2h-4h-2h-4h-4h-2h-4h-3h-4h-2h-4h-2h-4h-4h-2h-4h-2h-4h-4h-2h-5h-2h-4h-4h-2h-4h-2h-4h-4h-2h-4h-4h-2h-5h-4h-2h-4h-2h-4h-4h-2h-4h-4h-4h-2h-4h-5h-2h-4h-4h-2h-4h-4h-4h-2h-4h-4h-2h-5h-4h-4h-2h-4h-4h-4h-2h-4h-4h-4h-4h-3h-4h-4h-4h-4h-2 h-4h-4h-4h-4h-2h-5h-4h-4h-4h-4h-2h-4h-4h-4h-4h-4h-5h-4h-2h-4h-4h-4h-4h-4h-4h-4h-4h-5h-4h-4h-4h-2h-4h-4h-4h-4h-4h-4h-5h-4h-4h-6h-4h-18q-59 0 -94 28t-35 71zM260 522h488v641z" />
<glyph unicode="5" horiz-adv-x="1101" d="M53 236q0 33 23.5 60.5t48.5 38.5t29 5q121 -197 372 -197q145 0 231.5 71t86.5 191.5t-79 188.5t-220 68q-188 0 -309 -91q-129 8 -130 131v504q0 53 29 86t80 33h666q98 0 98 -86v-10q0 -84 -98 -84h-588v-379q125 59 272 59q215 0 345 -113.5t130 -303.5 q0 -199 -138 -317t-376 -118q-203 0 -338 85.5t-135 177.5z" />
<glyph unicode="6" horiz-adv-x="1202" d="M98 588v135q0 293 149.5 461t407.5 168q195 0 308.5 -74t113.5 -162q0 -35 -25.5 -61.5t-52 -35.5t-28.5 -5q-106 164 -305 164q-172 0 -265.5 -116t-93.5 -331l2 -41q154 145 375 146q205 0 327 -107.5t122 -292.5v-10q0 -197 -138.5 -325t-353.5 -128 q-260 0 -401.5 167t-141.5 448zM311 526q8 -182 91 -283.5t231 -101.5q131 0 214 75t83 194v12q0 123 -76 189.5t-215 66.5q-92 0 -179.5 -42t-148.5 -110z" />
<glyph unicode="7" horiz-adv-x="1085" d="M45 1223v14q0 88 94 88h2h2h2h2h3h2h2h2h2h2h2h2h2h2h2h2h2h2h2h2h2h2h2h2h2h3h2h2h2h2h2h2h2h2h2h2h2h2h2h2h2h2h2h2h2h2h3h2h2h2h2h2h2h2h2h2h2h2h2h2h2h2h2h2h4h2h3h2h2h2h2h2h2h2h2h2h4h2h2h2h2h2h2h2h4h3h2h2h2h4h2h2h2h2h4h2h2h2h2h4h2h2h2h5h2h2h2h4h2h2h4h2h2h4 h2h2h2h4h3h2h4h2h4h2h2h4h2h2h4h2h2h4h2h5h2h2h4h2h4h2h4h2h2h4h2h4h2h4h3h4h2h4h2h4h2h4h2h4h2h4h2h4h3h4h2h4h2h4h2h4h2h4h4h2h4h2h5h2h4h4h2h4h2h4h4h2h4h4h2h5h2h4h4h2h4h4h2h4h4h2h4h5h2h4h4h2h4h4h4h2h4h4h2h5h4h4h2h4h4h4h2h4h4h4h2h5h4h4h2h4h4h4h4h2h4h4h4h5h4h2h4 h4h4h4h4h2h4h4h5h4h4h4h4h2h4h4h4h4h4h5h4h4h4h4h4h16q76 0 103.5 -26.5t27.5 -73.5v-17q0 -43 -61 -153l-534 -992q-39 -74 -109 -73q-33 0 -62.5 17.5t-45 35.5t-9.5 27l590 1067h-674q-94 0 -94 86z" />
<glyph unicode="8" horiz-adv-x="1193" d="M76 352q0 242 268 330q-229 76 -229 299q0 166 132 268.5t351 102.5q221 0 349 -99.5t128 -267.5q0 -221 -225 -301q266 -82 266 -332q0 -168 -143.5 -272.5t-376.5 -104.5q-242 0 -381 102.5t-139 274.5zM283 369q0 -102 84 -167t231 -65q152 0 231.5 61.5t79.5 170.5 q0 106 -84 170.5t-229 64.5q-147 0 -230 -63t-83 -172zM317 969q0 -96 75 -154.5t206 -58.5t203.5 56t72.5 156.5t-73.5 161t-204.5 60.5q-135 0 -207 -58.5t-72 -162.5z" />
<glyph unicode="9" horiz-adv-x="1202" d="M72 874v9q0 199 139 333t352 134q252 0 396.5 -162t144.5 -449v-141q0 -307 -145.5 -466t-421.5 -159q-195 0 -307.5 71t-112.5 155q0 35 21.5 62.5t43 37.5t23.5 6q121 -160 323 -160q186 0 277.5 108.5t91.5 336.5l-2 31q-154 -145 -375 -146q-205 0 -326.5 106.5 t-121.5 292.5zM274 889q0 -123 75 -189.5t214 -66.5q92 0 180 42t150 109q-6 188 -90 294t-234 106q-127 0 -211 -82t-84 -203v-10z" />
<glyph unicode=":" horiz-adv-x="503" d="M127 96v25q0 113 111 112h26q113 0 113 -112v-25q0 -111 -113 -110h-26q-111 -1 -111 110zM127 762v24q0 111 111 111h26q113 0 113 -111v-24q0 -111 -113 -111h-26q-111 0 -111 111z" />
<glyph unicode=";" horiz-adv-x="503" d="M51 -203l111 348q16 53 35.5 75t68.5 22h19q86 0 86 -97v-10q0 -61 -47 -123l-170 -262q-13 -18 -37 -18q-14 0 -31 6q-37 13 -37 43q-1 7 2 16zM127 762v24q0 111 111 111h26q113 0 113 -111v-24q0 -111 -113 -111h-26q-111 0 -111 111z" />
<glyph unicode="&#x3c;" horiz-adv-x="950" d="M90 540.5q0 77.5 62 112.5l649 351h1q5 0 16 -11q13 -12 26 -36q14 -28 14 -53q0 -72 -100 -122l-465 -239l465 -240q101 -53 100 -123q0 -28 -14 -56q-12 -24 -25 -35q-10 -10 -16 -9h-2l-649 348q-62 35 -62 112.5z" />
<glyph unicode="=" horiz-adv-x="1101" d="M104 285v20q0 80 89 80h716q88 0 88 -80v-20q0 -80 -88 -80h-716q-89 0 -89 80zM104 764v18q0 80 89 80h716q88 0 88 -80v-18q0 -80 -88 -80h-716q-89 0 -89 80z" />
<glyph unicode="&#x3e;" horiz-adv-x="948" d="M90 180q0 70 100 123l465 240l-465 239q-101 51 -100 122v5q2 25 14.5 48.5t25.5 35.5q11 11 18 11h2l647 -351q61 -35 61 -112.5t-61 -112.5l-647 -348h-3q-6 0 -17 9q-13 11 -26 35q-14 28 -14 56z" />
<glyph unicode="?" horiz-adv-x="980" d="M61 1026q0 111 116 217.5t323 106.5q197 0 312.5 -97.5t115.5 -251.5q0 -92 -41 -159.5t-100 -107.5l-116 -78q-58 -38 -101.5 -95t-45.5 -137q-6 -45 -84 -45q-41 0 -64.5 17.5t-21.5 52.5q2 88 32 155.5t71 104t88 70.5t88 57.5t67.5 61.5t26.5 87q0 88 -61.5 140.5 t-169.5 52.5q-135 0 -205 -75t-86 -185q-2 -6 -37 -1t-71 32.5t-36 76.5zM319 96v25q0 113 111 112h29q113 0 112 -112v-25q0 -111 -112 -110h-29q-111 -1 -111 110z" />
<glyph unicode="@" horiz-adv-x="1521" d="M90 662q0 303 190.5 496.5t489.5 193.5q309 0 489.5 -168t180.5 -447q0 -195 -81 -298t-231 -103q-84 0 -142 36t-77 97q-66 -131 -211 -131q-121 0 -197.5 88t-76.5 223q0 137 78 223t200.5 86t192.5 -100q16 96 98 96q16 0 29.5 -4t21 -9t7.5 -9v-322q0 -160 118 -159 q76 0 117 76.5t41 207.5q0 227 -149.5 367.5t-407.5 140.5q-250 0 -408.5 -162.5t-158.5 -418.5q0 -252 163.5 -416t419.5 -164q201 0 336 100q37 27 70 27q20 0 36.5 -16.5t24 -35t2.5 -22.5q-78 -70 -202.5 -116t-266.5 -46q-313 0 -504.5 191t-191.5 498zM586 649 q0 -80 43 -128t110 -48q66 0 110 40t44 105v103q-45 102 -152 102q-70 0 -112.5 -48t-42.5 -126z" />
<glyph unicode="A" horiz-adv-x="1290" d="M27 53l471 1217q27 68 145 67q70 0 101.5 -16t43.5 -51l476 -1217q4 -8 -12.5 -23.5t-46 -27.5t-58.5 -12q-88 0 -125 98l-117 301h-530l-117 -303q-35 -96 -117 -96q-29 0 -57.5 12t-44.5 26.5t-12 24.5zM426 559h428l-213 561z" />
<glyph unicode="B" horiz-adv-x="1265" d="M141 119v1087q0 53 31 86t82 33h436q217 0 332 -88t115 -256q0 -215 -234 -285q143 -33 215 -118.5t72 -206.5q0 -186 -123 -278.5t-381 -92.5h-432q-51 0 -82 33t-31 86zM350 170h332q158 0 224.5 50t66.5 167q0 209 -285 209h-2h-2h-2h-2h-2h-2h-2h-2h-2h-2h-2h-2h-2 h-3h-2h-2h-2h-2h-2h-2h-2h-2h-2h-2h-2h-2h-2h-2h-2h-2h-2h-2h-5h-2h-2h-2h-2h-2h-2h-4h-2h-2h-2h-2h-4h-2h-2h-2h-4h-2h-3h-4h-2h-2h-4h-2h-2h-4h-2h-2h-4h-2h-4h-2h-4h-3h-4h-2h-2h-4h-2h-4h-2h-4h-4h-2h-4h-2h-4h-3h-4h-2h-4h-4h-2h-4h-4h-2h-4h-2h-4h-4h-5h-2h-4h-4h-2 h-4h-4h-2h-4h-4h-4h-2h-5h-4h-4h-4h-2h-4h-4h-4h-4h-2h-21v-426zM350 748h324q115 0 179.5 56t64.5 152q0 199 -248 199h-320v-407z" />
<glyph unicode="C" horiz-adv-x="1345" d="M90 659q0 305 188.5 499t485.5 194q223 0 361.5 -97.5t138.5 -183.5q0 -45 -30 -73.5t-60.5 -38t-32.5 -3.5q-55 98 -157.5 151.5t-217.5 53.5q-201 0 -329 -138t-128 -359q0 -219 130 -359.5t331 -140.5q135 0 238.5 62.5t144.5 168.5q2 6 35 -2t64.5 -36.5t31.5 -73.5 q0 -94 -144.5 -202t-381.5 -108q-295 0 -481.5 191.5t-186.5 494.5z" />
<glyph unicode="D" horiz-adv-x="1386" d="M141 117v1089q0 53 32 86t81 33h324q338 0 528 -175t190 -484q0 -311 -194.5 -488.5t-534.5 -177.5h-309q-49 0 -83 35t-34 82zM350 182h221q244 0 378 126t134 356q0 225 -135 352t-375 127h-223v-961z" />
<glyph unicode="E" horiz-adv-x="1202" d="M141 117v1089q0 53 31 86t82 33h768q98 0 98 -88v-12q0 -88 -98 -88h-670v-371h518q98 0 99 -84v-6q0 -88 -99 -88h-518v-402h682q96 0 96 -84v-10q0 -92 -96 -92h-780q-51 0 -82 32t-31 85z" />
<glyph unicode="F" horiz-adv-x="1112" d="M141 102v1104q0 53 31 86t82 33h715q98 0 98 -86v-12q0 -88 -98 -88h-619v-422h459q98 0 98 -84v-8q0 -86 -98 -86h-455v-451q0 -96 -92 -96h-33q-88 -1 -88 110z" />
<glyph unicode="G" horiz-adv-x="1458" d="M90 659q0 305 189.5 499t490.5 194q221 0 361.5 -92.5t140.5 -182.5q0 -43 -27.5 -71.5t-55.5 -35.5t-32 -1q-59 96 -163.5 148t-219.5 52q-207 0 -337 -142t-130 -369.5t122 -370t329 -142.5q160 0 268.5 82t128.5 213v86h-311q-106 0 -107 80v10q0 82 107 82h385 q113 0 112 -120v-566q0 -4 -9 -8t-25.5 -8t-34.5 -4q-115 0 -115 170v24q-131 -211 -440 -211q-283 0 -455 191.5t-172 492.5z" />
<glyph unicode="H" horiz-adv-x="1402" d="M141 88v1149q0 96 88 96h31q92 0 92 -96v-481h699v481q0 96 88 96h30q92 0 93 -96v-1149q0 -96 -93 -96h-30q-88 0 -88 96v483h-699v-483q0 -96 -92 -96h-31q-88 0 -88 96z" />
<glyph unicode="I" horiz-adv-x="530" d="M160 88v1149q0 96 90 96h29q92 0 92 -96v-1149q0 -96 -92 -96h-29q-90 0 -90 96z" />
<glyph unicode="J" horiz-adv-x="950" d="M47 186q0 37 23.5 67t47 42t25.5 6q80 -145 240 -145q121 0 174 67.5t53 225.5v788q0 96 90 96h31q90 0 90 -96v-791q0 -242 -104.5 -357.5t-317.5 -115.5q-152 0 -252 66.5t-100 146.5z" />
<glyph unicode="K" horiz-adv-x="1191" d="M141 88v1149q0 96 88 96h31q92 0 92 -96v-532l531 561q55 68 116 67q41 0 70 -22.5t39 -44t6 -27.5l-528 -561l542 -594q2 -2 3 -6q0 -7 -8 -22q-11 -22 -42.5 -43t-72.5 -21q-68 0 -115 59l-541 592v-555q0 -96 -92 -96h-31q-88 0 -88 96z" />
<glyph unicode="L" horiz-adv-x="1081" d="M141 117v1120q0 96 88 96h31q92 0 92 -96v-1047h576q98 0 98 -90v-8q0 -92 -98 -92h-674q-51 0 -82 32t-31 85z" />
<glyph unicode="M" horiz-adv-x="1533" d="M141 88v1129q0 53 33 84.5t88 31.5h55q57 0 84 -22.5t54 -83.5l313 -707l315 707q27 61 53.5 83.5t82.5 22.5h51q57 0 91 -31.5t34 -84.5v-1129q0 -96 -88 -96h-29q-84 0 -84 96v973l-293 -660q-20 -47 -47 -68.5t-88 -21.5q-63 0 -88 20.5t-47 69.5l-289 654v-967 q0 -96 -86 -96h-33q-82 0 -82 96z" />
<glyph unicode="N" horiz-adv-x="1396" d="M141 88v1126q0 55 26 87t75 32h34q45 0 70 -17.5t57 -62.5l656 -929v913q0 96 88 96h24q86 0 86 -96v-1126q0 -55 -26.5 -87t-71.5 -32h-16q-45 0 -65.5 13t-47.5 50l-690 977v-944q0 -96 -90 -96h-23q-86 0 -86 96z" />
<glyph unicode="O" horiz-adv-x="1517" d="M88 659.5q0 303.5 189.5 498t482.5 194.5q297 0 483.5 -191.5t186.5 -496.5q0 -303 -188.5 -497t-483.5 -194q-297 0 -483.5 191.5t-186.5 495zM301 664q0 -221 129 -362.5t330 -141.5t329 139t128 360.5t-129.5 363.5t-330 142t-328.5 -139t-128 -362z" />
<glyph unicode="P" horiz-adv-x="1165" d="M141 88v1118q0 53 31 86t82 33h342q246 0 380 -109.5t134 -312.5q0 -209 -133 -317.5t-389 -108.5h-236v-389q0 -96 -92 -96h-31q-88 0 -88 96zM350 647h242q307 0 307 252t-305 252h-244v-504z" />
<glyph unicode="Q" horiz-adv-x="1517" d="M88 659.5q0 303.5 189.5 498t484.5 194.5t481.5 -192.5t186.5 -495.5q0 -258 -152 -445l39 -39l80 -82l39 -41q4 -6 -9.5 -25.5t-44 -39t-67.5 -19.5q-61 0 -123 68l-49 51q-170 -119 -385 -119q-295 0 -482.5 191.5t-187.5 495zM301 664q0 -221 130 -362.5t331 -141.5 q143 0 252 69l-211 215q-29 31 -34 68q-1 6 -1 12q0 30 23 51l14 13q25 23 51 23q36 0 76 -44l207 -213q82 127 82 305q0 221 -129 363.5t-332 142.5t-331 -141t-128 -360z" />
<glyph unicode="R" horiz-adv-x="1206" d="M141 100v1106q0 53 31 86t82 33h377q244 0 369.5 -100.5t125.5 -296.5q0 -170 -101 -272.5t-294 -116.5l387 -461q6 -6 -6 -26.5t-44 -40t-73 -19.5q-76 0 -137 82l-362 444h-146v-430q0 -96 -92 -96h-29q-88 -1 -88 108zM348 684h279q143 0 214.5 61.5t71.5 172.5 q0 233 -292 233h-273v-467z" />
<glyph unicode="S" horiz-adv-x="1134" d="M66 238q0 31 22.5 60.5t46 42.5t27.5 9q61 -88 165.5 -145.5t233.5 -57.5q137 0 213 54.5t76 152.5q0 43 -19.5 77t-44 54.5t-78 40t-86 28.5t-104.5 26q-92 20 -154.5 43.5t-129 65.5t-100.5 111.5t-34 166.5q0 170 133.5 277.5t344.5 107.5q205 0 329.5 -77t124.5 -159 q0 -35 -23.5 -64.5t-48 -43t-26.5 -9.5q-55 78 -149.5 128.5t-204.5 50.5q-125 0 -200 -55.5t-75 -147.5q0 -49 18.5 -83t64.5 -57.5t85 -35t119 -29.5q18 -4 26 -6q96 -23 166 -49.5t137.5 -70.5t103.5 -113.5t36 -161.5q0 -182 -133 -289t-365 -107q-221 0 -359 86.5 t-138 178.5z" />
<glyph unicode="T" horiz-adv-x="1214" d="M41 1227v10q0 88 98 88h938q96 0 97 -88v-10q0 -90 -97 -90h-362v-1049q0 -96 -94 -96h-29q-90 0 -90 96v1049h-363q-98 0 -98 90z" />
<glyph unicode="U" horiz-adv-x="1331" d="M125 539v698q0 96 90 96h29q92 0 92 -96v-692q0 -383 329.5 -383t329.5 385v690q0 96 90 96h33q88 0 88 -96v-694q0 -276 -139 -422t-403.5 -146t-401.5 144t-137 420z" />
<glyph unicode="V" horiz-adv-x="1269" d="M31 1266q-4 10 13 25.5t49 28.5t63 13q90 0 123 -96l360 -1010l360 1010q33 96 117 96q31 0 61.5 -13t48 -28.5t13.5 -25.5l-473 -1198q-18 -43 -46 -61.5t-85 -18.5q-55 0 -83 17.5t-46 62.5z" />
<glyph unicode="W" horiz-adv-x="1894" d="M98 1274q-2 6 12.5 19.5t45 26.5t67.5 13q94 0 123 -123l215 -974l252 833q25 96 139 96q109 0 140 -96l247 -829l220 972q27 121 116 121q35 0 64.5 -13t43 -26.5t11.5 -19.5l-305 -1204q-10 -45 -43 -64.5t-100 -19.5q-61 0 -92 19.5t-46 66.5l-256 856l-268 -856 q-12 -47 -42 -66.5t-91 -19.5q-68 0 -100.5 18.5t-42.5 65.5z" />
<glyph unicode="X" horiz-adv-x="1241" d="M47 78l436 588l-424 579q-6 8 9.5 28.5t48.5 40t67 19.5q74 0 117 -69l324 -471l336 473q45 72 108 71q33 0 63.5 -19.5t46.5 -39.5q11 -15 11 -23q0 -3 -2 -6l-432 -585l432 -582q2 -2 2 -6q0 -8 -10 -23q-14 -20 -47 -39.5t-68 -19.5q-74 0 -117 69l-334 480l-340 -482 q-45 -72 -108 -71q-33 0 -63.5 19.5t-46.5 39.5q-11 15 -11 23q0 4 2 6z" />
<glyph unicode="Y" horiz-adv-x="1173" d="M12 1247q-4 8 8.5 27.5t46 39t78.5 19.5q63 0 103 -73l340 -541l340 541q45 74 104 73q41 0 74 -19.5t45 -39t8 -27.5l-467 -702v-457q0 -96 -92 -96h-29q-90 0 -90 96v457z" />
<glyph unicode="Z" horiz-adv-x="1247" d="M98 100v19q0 43 17.5 75.5t70.5 100.5l695 846h-682q-94 0 -95 86v12q0 86 95 86h800q135 0 136 -98v-19q0 -68 -86 -170l-701 -854h723q94 0 94 -86v-12q0 -86 -94 -86h-835q-70 0 -104 28.5t-34 71.5z" />
<glyph unicode="[" horiz-adv-x="706" d="M143 -287v1499q0 53 31 86t82 33h315q96 0 97 -78v-14q0 -80 -97 -80h-237v-1392h237q98 0 99 -78v-13q0 -82 -99 -82h-315q-51 0 -82 33t-31 86z" />
<glyph unicode="\" horiz-adv-x="694" d="M27 1245q0 94 114 94q41 0 41 -8l486 -1569q16 -53 16 -81q0 -94 -113 -95q-41 0 -41 8l-487 1569q-16 55 -16 82z" />
<glyph unicode="]" horiz-adv-x="706" d="M37 -311q0 78 98 78h238v1392h-236q-53 0 -75.5 18.5t-22.5 61.5v14q0 78 98 78h314q51 0 81.5 -32.5t30.5 -86.5v-1499q0 -53 -30.5 -86t-81.5 -33h-316q-98 0 -98 82v13z" />
<glyph unicode="^" d="M225 975q0 74 121 185.5t166 119.5q45 -8 165 -119.5t120 -185.5q0 -29 -17.5 -47.5t-46.5 -18.5q-41 0 -92 50.5t-131 168.5q-80 -119 -129 -169t-90 -50q-29 0 -47.5 18.5t-18.5 47.5z" />
<glyph unicode="_" horiz-adv-x="980" d="M27 -80q0 80 88 80h751q88 0 88 -80v-10q0 -78 -88 -78h-751q-88 0 -88 78v10z" />
<glyph unicode="`" d="M225 1372q0 35 28 57.5t64 22.5q51 0 99 -35q61 -41 123.5 -106.5t96.5 -115.5t28 -58q-9 -3 -27 -4q-15 0 -37 3q-47 5 -133 35.5t-154 75.5q-88 53 -88 125z" />
<glyph unicode="a" horiz-adv-x="1071" d="M68 258q0 168 161.5 248t499.5 86h27v20q0 113 -62.5 172.5t-181.5 59.5q-199 0 -283 -168q0 -4 -30.5 1t-62.5 29.5t-32 67.5q0 82 115 159t307 77q209 0 319.5 -102.5t110.5 -291.5v-604q0 -8 -23.5 -15t-49.5 -7q-123 0 -125 160q-55 -80 -148.5 -126.5t-206.5 -46.5 q-156 0 -245.5 77t-89.5 204zM266 266q0 -66 49.5 -104.5t137.5 -38.5q133 0 218 74.5t85 191.5v76l-56 -2q-221 -8 -327.5 -53.5t-106.5 -143.5z" />
<glyph unicode="b" horiz-adv-x="1198" d="M125 88v1296q0 4 9 9.5t27.5 9.5t37.5 4q129 0 129 -174v-399q125 176 344 176q201 0 331 -142.5t130 -374t-131.5 -376t-335.5 -144.5q-117 0 -207 49.5t-133 124.5v-59q0 -96 -88 -96h-23q-90 0 -90 96zM326 430q0 -123 89 -206t214 -83q137 0 222 96.5t85 254.5 q0 154 -85 252t-218 98q-223 0 -307 -205v-207z" />
<glyph unicode="c" horiz-adv-x="1056" d="M66 494q0 223 145 369.5t367 146.5q197 0 309 -92.5t112 -180.5q0 -37 -28.5 -61.5t-58 -29.5t-33.5 1q-80 193 -297 193q-139 0 -231.5 -98.5t-92.5 -247.5q0 -152 92 -251.5t232 -99.5q217 0 297 193q8 2 34.5 0t56 -27.5t29.5 -64.5q0 -86 -112.5 -178.5t-308.5 -92.5 q-223 0 -367.5 147t-144.5 374z" />
<glyph unicode="d" horiz-adv-x="1198" d="M66 491.5q0 231.5 131 375t335 143.5q115 0 204 -46t134 -116v536q0 4 10.5 9.5t28 9.5t35.5 4q129 0 129 -174v-1145q0 -96 -90 -96h-20q-90 0 -91 96v76q-121 -190 -346 -191q-201 0 -330.5 143.5t-129.5 375zM262 492q0 -154 85 -252.5t218 -98.5q125 0 216 83t91 206 v209q-84 203 -303 203q-139 0 -223 -96t-84 -254z" />
<glyph unicode="e" horiz-adv-x="1105" d="M66 487q0 225 143 374t360 149q213 0 343 -137.5t130 -358.5v-16q0 -33 -13 -46.5t-48 -13.5h-725q10 -135 102.5 -220t231.5 -85q213 0 309 164q4 4 28.5 -3t51.5 -32.5t27 -64.5q0 -76 -118 -150t-302 -74q-233 0 -376.5 141.5t-143.5 372.5zM256 575h590 q-8 129 -82 205t-197 76q-121 0 -207 -79t-104 -202z" />
<glyph unicode="f" horiz-adv-x="722" d="M16 897v14q0 74 90 74h115v74q0 362 314 362q109 0 165 -37.5t56 -95.5q0 -27 -11.5 -49t-23.5 -31.5t-14 -7.5q-57 57 -148 57q-74 0 -107.5 -48t-33.5 -152v-72h166q90 0 90 -76v-14q0 -76 -90 -76h-162v-731q0 -96 -88 -96h-21q-92 0 -92 96v731h-115q-90 0 -90 78z " />
<glyph unicode="g" horiz-adv-x="1001" d="M-4 -160q0 104 87 175t228 96q-41 35 -41 92q0 61 56 106q-119 39 -188.5 126t-69.5 202q0 156 120.5 264.5t300.5 108.5q127 0 236 -60l53 94q47 78 117 78q35 0 61.5 -20.5t36.5 -41.5q7 -15 8 -21q0 -2 -2 -3l-165 -172q84 -96 84 -221q0 -156 -120 -257t-306 -101 q-25 0 -37 2q-10 -16 -11 -37q0 -14 5.5 -24.5t18.5 -18.5t26.5 -14.5t40 -13.5t48 -12l60.5 -13.5t68 -16.5q287 -76 286 -268q0 -141 -136 -221t-380 -80q-248 0 -366.5 66.5t-118.5 205.5zM190 -154q0 -137 295 -137q150 0 233 40t83 114q0 20 -8.5 37.5t-28 31 t-36.5 23.5t-51 20.5t-55 15.5l-63 14q-41 9 -61 15q-133 -8 -220.5 -53t-87.5 -121zM260 641q0 -100 64.5 -161.5t167 -61.5t166 61.5t63.5 161.5q0 98 -64.5 160.5t-169.5 62.5q-100 0 -163.5 -61.5t-63.5 -161.5z" />
<glyph unicode="h" horiz-adv-x="1148" d="M125 88v1296q0 4 9 9.5t27.5 9.5t37.5 4q129 0 129 -174v-404q113 180 325 181q188 0 284.5 -117t96.5 -309v-496q0 -96 -90 -96h-22q-90 0 -91 96v473q0 127 -60 198.5t-167 71.5q-127 0 -201.5 -77.5t-74.5 -210.5v-455q0 -96 -90 -96h-23q-90 0 -90 96z" />
<glyph unicode="i" horiz-adv-x="471" d="M115 1309q0 115 123 114q119 0 118 -114q0 -113 -120 -113q-57 0 -89 30t-32 83zM133 88v809q0 98 92 98h21q90 0 90 -98v-809q0 -96 -90 -96h-21q-92 0 -92 96z" />
<glyph unicode="j" horiz-adv-x="471" d="M-168 -279q0 25 11.5 49.5t22.5 36t13 9.5q57 -57 131 -58q66 0 94.5 37t28.5 121v981q0 98 92 98h21q90 0 90 -98v-993q0 -152 -76 -233t-219 -81q-96 0 -152.5 37t-56.5 94zM115 1309q0 115 123 114q119 0 118 -114q0 -113 -120 -113q-57 0 -89 30t-32 83z" />
<glyph unicode="k" horiz-adv-x="970" d="M125 88v1296q0 4 9 9.5t27.5 9.5t37.5 4q129 0 129 -174v-688l342 381q55 70 121 69q33 0 59.5 -18.5t37.5 -36.5t7 -25l-358 -395l413 -448q4 -6 -8 -25.5t-41 -38t-61 -18.5q-66 0 -121 69l-391 422v-393q0 -96 -90 -96h-23q-90 0 -90 96z" />
<glyph unicode="l" horiz-adv-x="471" d="M133 88v1296q0 4 10.5 9.5t27.5 9.5t36 4q129 0 129 -174v-1145q0 -96 -90 -96h-21q-92 0 -92 96z" />
<glyph unicode="m" horiz-adv-x="1779" d="M125 88v885q0 4 9 9t27.5 9t37.5 4q117 0 127 -153q115 168 305 168q242 0 321 -207q123 207 342 207q184 0 277.5 -105.5t93.5 -300.5v-516q0 -96 -90 -96h-21q-92 0 -92 96v492q0 252 -217 251q-78 0 -144.5 -44t-105.5 -119v-580q0 -96 -90 -96h-20q-92 0 -92 96v483 q0 260 -218 260q-76 0 -143 -45t-104 -118v-580q0 -96 -90 -96h-23q-90 0 -90 96z" />
<glyph unicode="n" horiz-adv-x="1148" d="M125 88v885q0 4 9 9t27.5 9t37.5 4q119 0 127 -159q115 174 327 174q188 0 284.5 -116t96.5 -306v-500q0 -96 -90 -96h-22q-90 0 -91 96v475q0 125 -60 196.5t-167 71.5q-94 0 -165.5 -46t-110.5 -126v-571q0 -96 -90 -96h-23q-90 0 -90 96z" />
<glyph unicode="o" horiz-adv-x="1163" d="M66 494q0 227 145 371.5t373 144.5q225 0 369.5 -146.5t144.5 -374.5q0 -225 -144.5 -370.5t-371.5 -145.5q-229 0 -372.5 146t-143.5 375zM252 493.5q0 -151.5 94 -253t235.5 -101.5t234.5 99.5t93 250.5q0 154 -92 254.5t-235 100.5q-141 0 -235.5 -99.5t-94.5 -251z " />
<glyph unicode="p" horiz-adv-x="1198" d="M125 -305v1278q0 4 9 9t27.5 9t37.5 4q125 0 127 -170q125 184 346 185q201 0 331 -142.5t130 -374t-131.5 -376t-335.5 -144.5q-115 0 -204 53.5t-134 131.5v-463q0 -96 -90 -96h-23q-90 0 -90 96zM326 430q0 -123 89 -206t214 -83q137 0 222 96.5t85 254.5 q0 154 -85 252t-218 98q-223 0 -307 -205v-2v-2v-2v-2v-2v-2v-2v-2v-3v-2v-2v-2v-2v-2v-2v-2v-2v-2v-2v-2v-2v-2v-4v-2v-2v-2v-2v-5v-2v-2v-2v-4v-2v-2v-4v-2v-4v-2v-2v-4v-2v-4v-2v-5v-2v-4v-2v-4v-2v-4v-4v-2v-4v-2v-4v-4v-3v-4v-4v-2v-4v-4v-4v-2v-4v-4v-4v-2v-21z" />
<glyph unicode="q" horiz-adv-x="1198" d="M66 491.5q0 231.5 131 375t335 143.5q117 0 206 -47.5t134 -118.5q10 152 127 151q18 0 37 -4t28 -9t9 -9v-1278q0 -96 -90 -96h-22q-90 0 -91 96v465q-121 -186 -344 -187q-201 0 -330.5 143.5t-129.5 375zM262 492q0 -154 85 -252.5t218 -98.5q125 0 216 84t91 207v205 q-84 205 -303 205q-139 0 -223 -96t-84 -254z" />
<glyph unicode="r" horiz-adv-x="761" d="M125 88v885q0 4 9 9t27.5 9t37.5 4q125 0 127 -172q66 186 249 187q76 0 119 -35t43 -96q0 -35 -14 -61.5t-29.5 -36t-17.5 -7.5q-53 43 -125 43q-223 0 -223 -383v-346q0 -96 -90 -96h-23q-90 0 -90 96z" />
<glyph unicode="s" horiz-adv-x="950" d="M53 184q0 29 19.5 52.5t38 33t22.5 6.5q115 -147 332 -147q104 0 160.5 36t56.5 97q0 37 -14.5 60.5t-55.5 41t-73.5 26.5t-110.5 26q-59 12 -94 21t-89.5 32t-85 50.5t-54 74.5t-23.5 106q0 139 107.5 224.5t285.5 85.5q176 0 277.5 -61.5t101.5 -137.5 q0 -29 -19.5 -53.5t-40 -34.5t-22.5 -6q-104 139 -289 139q-102 0 -157.5 -36t-55.5 -99q0 -61 53.5 -88t192.5 -58l98 -22q35 -8 93.5 -31.5t89 -51.5t56.5 -76t26 -109q0 -141 -110 -225.5t-300 -84.5q-193 0 -304.5 65.5t-111.5 143.5z" />
<glyph unicode="t" horiz-adv-x="759" d="M39 895v14q0 76 88 76h72v152q0 96 90 96h20q88 0 88 -96v-152h224q86 0 86 -74v-14q0 -78 -89 -78h-223v-497q0 -94 30 -138.5t101 -44.5q88 0 140 70q4 4 17 -4t26.5 -30.5t13.5 -51.5q0 -59 -62.5 -104.5t-166.5 -45.5q-295 0 -295 326v520h-72q-88 0 -88 76z" />
<glyph unicode="u" horiz-adv-x="1148" d="M117 397v500q0 98 88 98h22q90 0 90 -98v-475q0 -127 61.5 -198.5t174.5 -71.5q184 0 270 174v571q0 98 88 98h23q90 0 90 -98v-883q0 -4 -9 -9t-26.5 -9t-36.5 -4q-121 0 -129 155q-117 -172 -327 -172q-188 0 -283.5 114.5t-95.5 307.5z" />
<glyph unicode="v" horiz-adv-x="1021" d="M27 936q-2 6 10 20.5t38.5 26.5t57.5 12q45 0 75 -25.5t54 -95.5l250 -692l254 692q43 121 125 121q29 0 55.5 -13t38.5 -26.5t10 -19.5l-358 -885q-27 -63 -125 -63t-123 59z" />
<glyph unicode="w" horiz-adv-x="1454" d="M41 936q-2 6 15.5 20.5t48 26.5t57.5 12q86 0 106 -108l154 -690l188 596q20 72 125 71q102 0 123 -71l182 -592l152 686q18 109 104 108q27 0 56.5 -13t46 -26.5t14.5 -19.5l-244 -883q-16 -66 -122 -65q-61 0 -86 14t-39 57l-191 596l-196 -596q-14 -41 -39 -56 t-84 -15q-106 0 -125 65z" />
<glyph unicode="x" horiz-adv-x="1001" d="M45 66l326 426l-322 430q-4 6 8.5 23.5t40 33.5t60.5 16q74 0 127 -84l219 -313l215 313q53 84 125 84q33 0 61.5 -17t42 -34.5t8.5 -21.5l-325 -430l319 -426q4 -6 -8 -23.5t-40 -35t-62 -17.5q-74 0 -125 84l-17 23l-39 57l-54 76l-52 74q-27 38 -41 61l-16 20 l-213 -309q-53 -86 -127 -86q-33 0 -61.5 17.5t-41 36t-8.5 22.5z" />
<glyph unicode="y" horiz-adv-x="1019" d="M27 936q-2 6 10 20.5t38.5 26.5t57.5 12q45 0 75 -25.5t54 -88.5l266 -680l236 676q37 119 127 118q25 0 52.5 -12t41.5 -24.5t12 -18.5l-465 -1227q-41 -113 -124 -112q-27 0 -53.5 12t-41 24.5t-12.5 18.5l164 399q-66 6 -86 58z" />
<glyph unicode="z" horiz-adv-x="987" d="M72 78v4v12q0 45 57 111l516 618h-481q-88 0 -88 74v14q0 74 88 74h657q84 0 84 -76v-12q0 -43 -55 -106l-526 -627h510q88 0 88 -76v-12q0 -76 -88 -76h-678q-84 0 -84 78z" />
<glyph unicode="{" horiz-adv-x="886" d="M49 464.5q0 67.5 23.5 97.5t95.5 67l113 61q20 313 163.5 480t313.5 167q43 0 68.5 -23.5t25.5 -64.5q0 -23 -12.5 -45t-18.5 -24q-184 -35 -262 -174.5t-86 -409.5l-244 -131l242 -131q10 -270 87 -409.5t261 -174.5q8 -2 20.5 -24.5t12.5 -44.5q0 -41 -26.5 -65 t-69.5 -24q-78 0 -155 39t-146.5 115t-116.5 204t-57 290l-113 61q-74 39 -96.5 67.5t-22.5 96z" />
<glyph unicode="|" horiz-adv-x="524" d="M160 -307v1548q0 96 92 96h20q90 0 90 -96v-1548q0 -98 -90 -99h-20q-92 1 -92 99z" />
<glyph unicode="}" horiz-adv-x="886" d="M33 1249q0 41 25.5 64.5t68.5 23.5q78 0 155.5 -38.5t147.5 -114.5t117 -204t57 -290l115 -61q72 -39 95.5 -68t23.5 -96.5t-22.5 -96t-96.5 -67.5l-113 -61q-10 -162 -57 -290t-117 -204t-147.5 -115t-155.5 -39q-43 0 -68.5 24t-25.5 65q0 23 12 45t19 24 q184 35 262 174.5t86 409.5l241 131l-241 131q-10 270 -87 409.5t-261 174.5q-8 2 -20.5 24t-12.5 45z" />
<glyph unicode="~" horiz-adv-x="1021" d="M197 410q0 80 46 138t113 58q125 0 295 -153q45 141 105 141q72 0 71 -74q0 -78 -47 -136t-112 -58q-131 0 -295 153q-49 -141 -105 -141q-33 0 -52 19.5t-19 52.5z" />
<glyph unicode="&#xa1;" horiz-adv-x="532" d="M141 1204v25q0 111 113 110h27q111 0 110 -110v-25q0 -111 -110 -110h-27q-113 -1 -113 110zM143 113l62 759q12 68 51 68h23q23 0 33 -15.5t16 -52.5l61 -759q2 -15 2 -28q0 -41 -19 -66q-26 -32 -79 -31h-51q-53 0 -80 31q-20 24 -21 66q0 14 2 28z" />
<glyph unicode="&#xa2;" horiz-adv-x="1095" d="M78 578q0 205 118.5 346t311.5 174v155q0 98 84 99h10q82 0 82 -99v-151q160 -14 253 -88t93 -148q0 -37 -25.5 -63.5t-52 -35.5t-30.5 -3q-82 150 -246 170v-713q180 20 258 189q4 6 30.5 -1.5t54.5 -33t28 -62.5q0 -82 -98.5 -162.5t-262.5 -97.5v-2v-2v-2v-2v-2v-2v-2 v-2v-2v-2v-2v-2v-2v-2v-2v-3v-2v-2v-2v-2v-4v-2v-2v-2v-4v-2v-2v-4v-2v-4v-2v-2v-5v-2v-4v-2v-4v-4v-2v-4v-2v-4v-4v-2v-4v-5v-2v-4v-4v-2v-4v-4v-18q0 -96 -84 -97h-10q-82 0 -82 97v165q-201 29 -316.5 165.5t-115.5 353.5zM274 578q0 -135 66 -224.5t178 -120.5v695 q-113 -27 -178.5 -118t-65.5 -232z" />
<glyph unicode="&#xa3;" horiz-adv-x="1185" d="M33 82v14q0 80 94 80h86l63 350h-126q-82 0 -82 72v18q0 74 82 74h157l49 273q72 389 416 389q168 0 263 -83t95 -186q0 -51 -32 -78t-59 -27h-2q-28 1 -33 1q-43 201 -226 201q-104 0 -157.5 -56.5t-75.5 -181.5l-45 -252h307q82 0 82 -74v-18q0 -72 -82 -72h-338 l-63 -350h610q94 0 94 -82v-12q0 -82 -94 -82h-889q-94 0 -94 82z" />
<glyph unicode="&#xa4;" horiz-adv-x="1286" d="M61 502v16q0 66 82 66h103v26v107v33h-103q-82 0 -82 65v16q0 63 82 64h119q43 211 184.5 333t344.5 122q186 0 304.5 -83t118.5 -175q0 -37 -25.5 -65t-52 -37t-30.5 -3q-55 94 -131 141.5t-189 47.5q-117 0 -201.5 -75t-119.5 -206h391q80 0 80 -64v-16q0 -66 -80 -65 h-412v-25v-123v-18h412q80 0 80 -66v-16q0 -66 -80 -66h-391q35 -133 122 -209.5t210 -76.5q209 0 313 204q4 6 30.5 -3t53.5 -37.5t27 -65.5q0 -92 -118 -183.5t-304 -91.5q-215 0 -355.5 122t-181.5 341h-119q-82 0 -82 66z" />
<glyph unicode="&#xa5;" horiz-adv-x="1206" d="M86 1245q-4 8 8 29.5t45 41t76 19.5q66 0 102 -73l287 -523l293 521q43 76 104 75q37 0 68 -20.5t42 -40.5q8 -15 8 -24q0 -3 -1 -5l-358 -571h248q84 0 84 -68v-16q0 -68 -84 -68h-310v-139h310q84 0 84 -68v-16q0 -68 -84 -68h-310v-145q0 -96 -86 -96h-22 q-82 0 -82 96v145h-311q-84 0 -84 68v16q0 68 84 68h311v139h-311q-84 0 -84 68v16q0 68 84 68h249z" />
<glyph unicode="&#xa7;" horiz-adv-x="1110" d="M66 -96q0 29 20.5 55.5t42 38.5t23.5 8q121 -190 383 -190q127 0 197.5 41t70.5 114q0 55 -42 90t-87 49.5t-162 41.5q-10 2 -16 4q-76 18 -121 30.5t-110.5 39t-101.5 58t-63.5 84t-27.5 117.5q0 195 219 267q-176 80 -176 258q0 152 127 246t321 94q207 0 315.5 -76 t108.5 -154q0 -31 -20.5 -58.5t-42 -38.5t-25.5 -7q-125 172 -330 172q-109 0 -180.5 -42t-71.5 -116t74 -113.5t236 -76.5q78 -18 119.5 -30.5t106.5 -40.5t99.5 -58.5t61 -81.5t26.5 -115q0 -190 -215 -266q178 -76 179 -260q0 -152 -128 -244t-341 -92q-225 0 -347 81 t-122 171zM254 514q0 -33 10 -58.5t39 -45t51.5 -32.5t73.5 -26.5t76.5 -19.5l91.5 -21q33 -8 49 -10q92 12 151.5 65.5t59.5 118.5q0 37 -19.5 67t-44 48t-76.5 35.5t-88 27t-108 23.5q-8 2 -23.5 5t-23.5 5q-96 -14 -157.5 -67.5t-61.5 -114.5z" />
<glyph unicode="&#xa8;" d="M203 1239q0 57 32.5 90t86.5 33q59 0 91.5 -33t32.5 -90t-32.5 -89t-88 -32t-89 33t-33.5 88zM578 1239q0 57 32.5 90t88 33t89 -33t33.5 -90q0 -55 -32.5 -88t-86.5 -33q-59 0 -91.5 32t-32.5 89z" />
<glyph unicode="&#xa9;" horiz-adv-x="1540" d="M92 659q0 299 193.5 496t486.5 197q297 0 486.5 -192.5t189.5 -493.5q0 -299 -192.5 -496t-485.5 -197q-297 0 -487.5 193.5t-190.5 492.5zM213 664q0 -250 158.5 -415t400.5 -165q248 0 401.5 161t153.5 417q0 250 -158.5 414.5t-400.5 164.5q-248 0 -401.5 -160.5 t-153.5 -416.5zM420 659q0 158 105.5 263.5t260.5 105.5q152 0 236 -84q39 -39 39 -82q0 -25 -19.5 -45t-40 -28.5t-22.5 -4.5q-61 102 -191 103q-88 0 -149 -64.5t-61 -160.5q0 -98 62 -163t155 -65q133 0 190 111q2 4 22.5 -3t41 -28.5t20.5 -48.5q0 -39 -47 -90 q-80 -84 -234 -84q-162 0 -265 103t-103 265z" />
<glyph unicode="&#xaa;" horiz-adv-x="890" d="M63 743q0 84 44.5 138.5t166 90.5t334.5 46q0 190 -192 190q-139 0 -215 -131q-2 -4 -28 0t-52.5 23.5t-26.5 54.5q0 70 88 133.5t246 63.5q354 0 354 -334v-467q0 -18 -63 -19q-96 0 -105 119q-90 -129 -262 -129q-135 0 -212 59.5t-77 161.5zM233 756q0 -49 44.5 -78 t119.5 -29q88 0 150.5 52.5t62.5 121.5v92q-221 -14 -299 -51.5t-78 -107.5zM317 86v20q0 100 101 101h22q102 0 103 -101v-20q0 -100 -103 -100h-22q-101 0 -101 100z" />
<glyph unicode="&#xab;" horiz-adv-x="1062" d="M82 499.5q0 16.5 62.5 93.5t151.5 150.5t142 73.5h4q29 0 47.5 -19.5t18.5 -45.5v-4q0 -70 -268 -250q268 -176 268 -248v-2q0 -29 -18.5 -47.5t-47.5 -18.5h-4q-53 0 -142 74t-151.5 150.5t-62.5 93zM504 499.5q0 18.5 68.5 103.5t166 167t156.5 82h4q33 0 53.5 -20.5 t20.5 -51.5v-6q0 -74 -301 -276q301 -197 301 -273v-8q0 -29 -20.5 -49.5t-53.5 -20.5h-4q-59 0 -156.5 82t-166 167t-68.5 103.5z" />
<glyph unicode="&#xac;" horiz-adv-x="1468" d="M90 659.5q0 305.5 189.5 499t490.5 193.5q221 0 360.5 -92.5t139.5 -182.5q0 -37 -26.5 -66.5t-54.5 -41t-32 -4.5q-59 96 -163.5 150t-219.5 54q-205 0 -336 -142t-131 -370q0 -225 129 -366t332 -141q166 0 276.5 95t120.5 263h-377q-98 0 -98 80v10q0 82 98 82h517 q45 0 59 -19.5t14 -68.5v-23q0 -262 -170 -429t-436 -167q-307 0 -494.5 190.5t-187.5 496z" />
<glyph unicode="&#xad;" horiz-adv-x="804" d="M84 483v29q0 37 22.5 58.5t65.5 21.5h461q88 0 88 -80v-29q0 -78 -88 -77h-461q-88 -1 -88 77z" />
<glyph unicode="&#xae;" horiz-adv-x="1540" d="M92 659q0 299 193.5 496t486.5 197q297 0 486.5 -192.5t189.5 -493.5q0 -299 -192.5 -496t-485.5 -197q-297 0 -487.5 193.5t-190.5 492.5zM213 664q0 -250 158.5 -415t400.5 -165q248 0 401.5 161t153.5 417q0 250 -158.5 414.5t-400.5 164.5q-248 0 -401.5 -160.5 t-153.5 -416.5zM498 391v545q0 86 82 86h217q285 0 284 -225q0 -86 -49 -142.5t-141 -70.5l182 -222q4 -6 -7 -19t-33.5 -26.5t-45.5 -13.5q-59 0 -98 57l-156 205h-2h-2h-2h-2h-2h-2h-2h-2h-2h-2h-4h-2h-2h-3h-4h-2h-4h-2h-4h-2h-4h-4h-2h-4h-19v-188q0 -72 -65 -72h-23 q-65 0 -65 86zM649 684h146q63 0 98 28.5t35 78.5q0 106 -140 106h-139v-213z" />
<glyph unicode="&#xaf;" d="M190 1231v12q0 76 103 76h438q102 0 103 -76v-12q0 -80 -103 -80h-438q-103 0 -103 80z" />
<glyph unicode="&#xb0;" horiz-adv-x="817" d="M88 1018v18q0 137 92 227.5t231.5 90.5t228.5 -89t89 -227v-18q0 -137 -92 -227.5t-231.5 -90.5t-228.5 89.5t-89 226.5zM231 1018q0 -80 52.5 -133.5t128.5 -53.5q74 0 124 52.5t50 132.5v22q0 80 -52.5 133.5t-125.5 53.5q-76 0 -126.5 -52.5t-50.5 -132.5v-22z" />
<glyph unicode="&#xb1;" horiz-adv-x="839" d="M37 1122q0 31 13 57.5t27.5 38t18.5 9.5q51 -47 121 -47q66 0 112 44t54 111h72q92 0 92 -96v-1061h158q96 0 96 -86v-10q0 -82 -96 -82h-537q-96 0 -96 82v10q0 86 96 86h180v869q-61 -66 -147 -66q-72 0 -118 39t-46 102z" />
<glyph unicode="&#xb2;" horiz-adv-x="1095" d="M78 115v51q0 96 32.5 175t100.5 138.5t126 96t150 81.5q190 94 242 136q88 70 88 159q0 102 -71.5 160.5t-198.5 58.5q-254 0 -324 -253q-6 0 -37 -2h-2q-30 0 -64 27q-36 28 -36 77q0 119 130 225.5t347 106.5t340 -105.5t123 -290.5q0 -86 -29.5 -151.5t-93 -116.5 t-118 -82t-148.5 -74q-90 -41 -141.5 -68.5t-107.5 -69.5t-83 -95t-29 -119h672q100 0 101 -82v-12q0 -86 -101 -86h-737q-70 0 -100.5 27t-30.5 88z" />
<glyph unicode="&#xb3;" horiz-adv-x="1118" d="M33 270q0 49 30.5 77t60.5 33t32 -1q39 -113 135 -173.5t229 -60.5q141 0 224 63.5t83 170.5q0 233 -303 233h-94q-100 0 -100 76v12q0 76 96 76h123q121 0 184.5 53.5t63.5 147.5q0 96 -74 150.5t-205 54.5q-236 0 -323 -201q-2 -6 -33 0t-60.5 32.5t-29.5 71.5 q0 94 129 180.5t319 86.5q229 0 355 -94.5t126 -264.5q0 -215 -225 -280q258 -88 258 -342q0 -186 -136 -292t-378 -106q-221 0 -354 96.5t-133 200.5z" />
<glyph unicode="&#xb4;" d="M360 1137q-6 8 28 58t96.5 115.5t121.5 106.5q53 35 99 35q39 0 65.5 -22.5t26.5 -57.5q0 -74 -86 -125q-68 -45 -154 -75.5t-133.5 -35.5t-63.5 1z" />
<glyph unicode="&#xb5;" horiz-adv-x="1198" d="M66 491.5q0 231.5 131 375t335 143.5q117 0 207 -46t133 -118q10 150 127 149q18 0 37 -4t28 -9t9 -9v-887q0 -96 -90 -96h-22q-90 0 -91 96v74q-121 -186 -344 -187q-201 0 -330.5 143.5t-129.5 375zM262 492q0 -154 85 -252.5t218 -98.5q125 0 216 83t91 206v209 q-84 203 -303 203q-139 0 -223 -96t-84 -254z" />
<glyph unicode="&#x3bc;" horiz-adv-x="1198" d="M66 491.5q0 231.5 131 375t335 143.5q117 0 207 -46t133 -118q10 150 127 149q18 0 37 -4t28 -9t9 -9v-887q0 -96 -90 -96h-22q-90 0 -91 96v74q-121 -186 -344 -187q-201 0 -330.5 143.5t-129.5 375zM262 492q0 -154 85 -252.5t218 -98.5q125 0 216 83t91 206v209 q-84 203 -303 203q-139 0 -223 -96t-84 -254z" />
<glyph unicode="&#xb6;" horiz-adv-x="1269" d="M57 952q0 184 120 281.5t353 97.5h232q41 0 65.5 -24.5t24.5 -65.5v-1178q0 -74 -68 -73h-22q-70 0 -70 73v521h-153q-236 0 -359 93t-123 275zM969 63v1199q0 74 67 73h23q72 0 71 -73v-1199q0 -74 -71 -73h-23q-67 -1 -67 73z" />
<glyph unicode="&#xb7;" horiz-adv-x="475" d="M113 485v25q0 113 110 113h27q113 0 112 -113v-25q0 -111 -112 -110h-27q-110 -1 -110 110z" />
<glyph unicode="&#xb8;" d="M313 -420l109 242q14 31 23.5 45t30 24.5t54.5 10.5h19q41 0 67.5 -19.5t26.5 -52.5v-10q0 -29 -65 -94l-162 -185q-15 -14 -40 -14q-14 0 -31 5q-35 10 -35 33q0 7 3 15z" />
<glyph unicode="&#xb9;" horiz-adv-x="749" d="M41 1122q0 31 13.5 57.5t27.5 38t18 9.5q51 -47 121 -47q66 0 112 44t54 111h72q92 0 92 -96v-1153q0 -96 -92 -96h-27q-90 0 -90 96v950q-55 -55 -137 -55q-72 0 -118 39t-46 102z" />
<glyph unicode="&#xba;" horiz-adv-x="978" d="M78 934q0 174 119.5 296t294.5 122q178 0 293.5 -119t115.5 -297q0 -176 -118.5 -296t-293.5 -120q-178 0 -294.5 118t-116.5 296zM242 936q0 -113 71.5 -190.5t178 -77.5t176 76.5t69.5 191.5t-70.5 191.5t-174.5 76.5q-106 0 -178 -76.5t-72 -191.5zM375 86v20 q0 100 100 101h23q102 0 102 -101v-20q0 -100 -102 -100h-23q-100 0 -100 100z" />
<glyph unicode="&#xbb;" horiz-adv-x="1062" d="M90 219v6q0 74 301 277q-301 197 -301 272v8q0 31 19.5 50.5t54.5 19.5h2q59 0 156.5 -82t166 -167t68.5 -103.5t-68.5 -103.5t-166 -167t-156.5 -82h-2q-35 0 -54.5 20.5t-19.5 51.5zM555 248v4q0 68 266 250q-266 178 -266 248v2q0 29 17.5 47t48.5 18h2 q55 0 143 -73.5t151.5 -150.5t63.5 -93.5t-63.5 -93t-151.5 -150.5t-143 -74h-2q-29 0 -47.5 19.5t-18.5 46.5z" />
<glyph unicode="&#xbc;" horiz-adv-x="3299" d="M41 1122q0 31 13.5 57.5t27.5 38t18 9.5q51 -47 121 -47q66 0 112 44t54 111h72q92 0 92 -96v-1153q0 -96 -92 -96h-27q-90 0 -90 96v950q-55 -55 -137 -55q-72 0 -118 39t-46 102zM807 53q0 45 57 109l1057 1190q5 2 14 2q7 0 16 -1q22 -3 45 -23.5t23 -49.5 q0 -43 -57 -109l-1057 -1187q-5 -2 -13 -3q-7 0 -16 2q-22 3 -45.5 23t-23.5 47zM2150 453v45q0 49 60 131l473 612q41 57 74.5 75.5t105.5 18.5q86 0 122 -31.5t36 -105.5v-672h145q92 0 92 -82v-10q0 -80 -92 -80h-145v-268q0 -96 -90 -96h-23q-39 0 -62.5 26.5 t-23.5 69.5v268h-2h-4h-2h-4h-2h-2h-4h-2h-4h-3h-4h-2h-4h-2h-2h-4h-2h-4h-2h-4h-2h-4h-2h-5h-2h-4h-2h-4h-2h-4h-2h-4h-2h-4h-2h-4h-4h-3h-4h-2h-4h-2h-4h-2h-4h-4h-2h-4h-2h-4h-5h-2h-4h-2h-4h-4h-2h-4h-2h-4h-4h-2h-4h-5h-2h-4h-4h-2h-4h-2h-4h-4h-2h-4h-4h-5h-2h-4h-4 h-2h-4h-4h-2h-4h-4h-4h-2h-4h-5h-2h-4h-4h-4h-2h-4h-4h-4h-2h-4h-4h-5h-4h-2h-4h-4h-4h-4h-2h-4h-4h-4h-5h-2h-4h-4h-4h-4h-4h-2h-4h-4h-4h-5h-4h-4h-4h-2h-4h-4h-4h-4h-4h-4h-5h-4h-4h-4h-4h-4h-2h-4h-4h-4h-4h-5h-4h-4h-4h-4h-6h-4h-19q-59 0 -94 28t-35 71zM2343 522h487 v641z" />
<glyph unicode="&#xbd;" horiz-adv-x="3178" d="M41 1122q0 31 13.5 57.5t27.5 38t18 9.5q51 -47 121 -47q66 0 112 44t54 111h72q92 0 92 -96v-1153q0 -96 -92 -96h-27q-90 0 -90 96v950q-55 -55 -137 -55q-72 0 -118 39t-46 102zM807 53q0 45 57 109l1057 1190q5 2 14 2q7 0 16 -1q22 -3 45 -23.5t23 -49.5 q0 -43 -57 -109l-1057 -1187q-5 -2 -13 -3q-7 0 -16 2q-22 3 -45.5 23t-23.5 47zM2161 115v51q0 96 32.5 175t100 138.5t126 96t150.5 81.5q190 94 242 136q88 70 88 159q0 102 -71.5 160.5t-198.5 58.5q-254 0 -324 -253q-6 0 -37 -2h-2q-30 0 -64 27q-36 28 -36 77 q0 119 130 225.5t347 106.5t340 -105.5t123 -290.5q0 -86 -30 -151.5t-93.5 -116.5t-117.5 -82t-148 -74q-90 -41 -141.5 -68.5t-107.5 -69.5t-83 -95t-29 -119h672q100 0 100 -82v-12q0 -86 -100 -86h-737q-70 0 -100.5 27t-30.5 88z" />
<glyph unicode="&#xbe;" horiz-adv-x="3667" d="M33 270q0 49 30.5 77t60.5 33t32 -1q39 -113 135 -173.5t229 -60.5q141 0 224 63.5t83 170.5q0 233 -303 233h-94q-100 0 -100 76v12q0 76 96 76h123q121 0 184.5 53.5t63.5 147.5q0 96 -74 150.5t-205 54.5q-236 0 -323 -201q-2 -6 -33 0t-60.5 32.5t-29.5 71.5 q0 94 129 180.5t319 86.5q229 0 355 -94.5t126 -264.5q0 -215 -225 -280q258 -88 258 -342q0 -186 -136 -292t-378 -106q-221 0 -354 96.5t-133 200.5zM1176 53q0 45 57 109l1057 1190q5 2 13 2q7 0 16 -1q22 -3 45.5 -23.5t23.5 -49.5q0 -43 -57 -109l-1057 -1187 q-5 -2 -14 -3q-7 0 -16 2q-22 3 -45 23t-23 47zM2519 453v45q0 49 59 131l474 612q41 57 74.5 75.5t105.5 18.5q86 0 121.5 -31.5t35.5 -105.5v-672h146q92 0 92 -82v-10q0 -80 -92 -80h-146v-268q0 -96 -90 -96h-22q-39 0 -62.5 26.5t-23.5 69.5v268h-2h-4h-2h-5h-2h-2h-4 h-2h-4h-2h-4h-2h-4h-2h-2h-4h-2h-4h-3h-4h-2h-4h-2h-4h-2h-4h-2h-4h-2h-4h-2h-4h-3h-4h-2h-4h-4h-2h-4h-2h-4h-2h-4h-2h-4h-5h-2h-4h-2h-4h-4h-2h-4h-2h-4h-4h-2h-4h-2h-5h-4h-2h-4h-4h-2h-4h-4h-2h-4h-2h-4h-5h-2h-4h-4h-4h-2h-4h-4h-2h-4h-4h-2h-5h-4h-4h-2h-4h-4h-2h-4 h-4h-4h-2h-4h-5h-4h-2h-4h-4h-4h-4h-2h-4h-4h-4h-4h-3h-4h-4h-4h-4h-2h-4h-4h-4h-4h-4h-2h-5h-4h-4h-4h-4h-4h-4h-2h-4h-4h-4h-5h-4h-4h-4h-4h-4h-4h-4h-4h-2h-4h-5h-4h-4h-4h-4h-4h-4h-4h-6h-5h-18q-59 0 -94 28t-35 71zM2712 522h487v641z" />
<glyph unicode="&#xbf;" horiz-adv-x="980" d="M53 326q0 92 41 158.5t100 106.5l116 78q58 38 101.5 96t45.5 138q6 43 84 43q41 0 64.5 -16.5t21.5 -50.5q-4 -104 -43 -179t-93.5 -114t-108.5 -72t-91 -75t-37 -99q0 -88 60.5 -139t170.5 -51q135 0 205 73.5t86 184.5h38q32 0 69 -30t37 -79q0 -111 -117 -217.5 t-324 -106.5q-195 0 -310.5 97.5t-115.5 253.5zM410 1204v25q0 111 112 110h29q111 0 111 -110v-25q0 -111 -111 -110h-29q-112 -1 -112 110z" />
<glyph unicode="&#xc0;" horiz-adv-x="1290" d="M27 53l471 1217q27 68 145 67q70 0 101.5 -16t43.5 -51l476 -1217q4 -8 -12.5 -23.5t-46 -27.5t-58.5 -12q-88 0 -125 98l-117 301h-530l-117 -303q-35 -96 -117 -96q-29 0 -57.5 12t-44.5 26.5t-12 24.5zM313 1712q0 35 28 57.5t64 22.5q51 0 99 -35 q61 -41 123.5 -106.5t96.5 -115.5t28 -58q-16 -6 -63.5 -1t-133.5 35.5t-154 75.5q-88 53 -88 125zM426 559h428l-213 561z" />
<glyph unicode="&#xc1;" horiz-adv-x="1290" d="M27 53l471 1217q27 68 145 67q70 0 101.5 -16t43.5 -51l476 -1217q4 -8 -12.5 -23.5t-46 -27.5t-58.5 -12q-88 0 -125 98l-117 301h-530l-117 -303q-35 -96 -117 -96q-29 0 -57.5 12t-44.5 26.5t-12 24.5zM426 559h428l-213 561zM530 1477q-6 8 28 58t96.5 115.5 t121.5 106.5q53 35 98 35q39 0 66 -22.5t27 -57.5q0 -74 -86 -125q-68 -45 -154 -75.5t-133 -35.5q-21 -2 -37 -3q-18 1 -27 4z" />
<glyph unicode="&#xc2;" horiz-adv-x="1290" d="M27 53l471 1217q27 68 145 67q70 0 101.5 -16t43.5 -51l476 -1217q4 -8 -12.5 -23.5t-46 -27.5t-58.5 -12q-88 0 -125 98l-117 301h-530l-117 -303q-35 -96 -117 -96q-29 0 -57.5 12t-44.5 26.5t-12 24.5zM362 1526q0 74 121 185.5t166 119.5q45 -8 165 -120t120 -185 q0 -29 -17.5 -47.5t-46.5 -18.5q-43 0 -93 50.5t-130 168.5q-80 -119 -129 -169t-90 -50q-29 0 -47.5 18.5t-18.5 47.5zM426 559h428l-213 561z" />
<glyph unicode="&#xc3;" horiz-adv-x="1290" d="M27 53l471 1217q27 68 145 67q70 0 101.5 -16t43.5 -51l476 -1217q4 -8 -12.5 -23.5t-46 -27.5t-58.5 -12q-88 0 -125 98l-117 301h-530l-117 -303q-35 -96 -117 -96q-29 0 -57.5 12t-44.5 26.5t-12 24.5zM344 1542q0 80 46 138.5t114 58.5q125 0 295 -154 q45 141 104 141q72 0 72 -73q0 -78 -47 -136.5t-113 -58.5q-131 0 -295 154q-49 -141 -104 -142q-33 0 -52.5 19.5t-19.5 52.5zM426 559h428l-213 561z" />
<glyph unicode="&#xc4;" horiz-adv-x="1290" d="M27 53l471 1217q27 68 145 67q70 0 101.5 -16t43.5 -51l476 -1217q4 -8 -12.5 -23.5t-46 -27.5t-58.5 -12q-88 0 -125 98l-117 301h-530l-117 -303q-35 -96 -117 -96q-29 0 -57.5 12t-44.5 26.5t-12 24.5zM340 1579q0 57 32.5 90t86.5 33q59 0 92 -33t33 -90t-33 -89 t-88 -32t-89 33t-34 88zM426 559h428l-213 561zM715 1579q0 57 32.5 90t88 33t89 -33t33.5 -90q0 -55 -32.5 -88t-85.5 -33q-59 0 -92 32t-33 89z" />
<glyph unicode="&#xc5;" horiz-adv-x="1290" d="M27 53l471 1217q0 4 6 6q-106 66 -107 199q0 104 71 174.5t177.5 70.5t176 -69.5t69.5 -175.5q0 -133 -111 -199q6 -2 6 -6l478 -1217q4 -8 -12.5 -23.5t-46 -27.5t-58.5 -12q-88 0 -125 98l-117 301h-530l-117 -303q-35 -96 -117 -96q-29 0 -57.5 12t-44.5 26.5 t-12 24.5zM426 559h428l-213 565zM516 1475q0 -55 37 -94.5t90 -39.5t89 38t36 95.5t-36 97.5t-89 40t-90 -40t-37 -97z" />
<glyph unicode="&#xc6;" horiz-adv-x="1757" d="M27 53l462 1192q29 80 136 80h952q98 0 98 -88v-12q0 -88 -98 -88h-746l144 -369h450q98 0 99 -84v-10q0 -86 -99 -86h-376l155 -402h385q96 0 97 -84v-10q0 -92 -97 -92h-418q-68 0 -102.5 22.5t-56.5 83.5l-107 283h-530l-117 -303q-37 -96 -117 -96q-29 0 -57.5 12 t-44.5 26.5t-12 24.5zM426 559h428l-213 561z" />
<glyph unicode="&#xc7;" horiz-adv-x="1345" d="M90 659q0 305 188.5 499t485.5 194q223 0 361.5 -97.5t138.5 -183.5q0 -45 -30 -73.5t-60.5 -38t-32.5 -3.5q-55 98 -157.5 151.5t-217.5 53.5q-201 0 -329 -138t-128 -359q0 -219 130 -359.5t331 -140.5q135 0 238.5 62.5t144.5 168.5q2 6 35 -2t64.5 -36.5t31.5 -73.5 q0 -94 -144.5 -202t-381.5 -108q-295 0 -481.5 191.5t-186.5 494.5zM526 -420l109 242q14 31 23.5 45t30 24.5t54.5 10.5h19q41 0 67.5 -19.5t26.5 -52.5v-10q0 -29 -65 -94l-162 -185q-15 -14 -40 -14q-14 0 -31 5q-35 10 -35 33q0 7 3 15z" />
<glyph unicode="&#xc8;" horiz-adv-x="1202" d="M141 117v1089q0 53 31 86t82 33h768q98 0 98 -88v-12q0 -88 -98 -88h-670v-371h518q98 0 99 -84v-6q0 -88 -99 -88h-518v-402h682q96 0 96 -84v-10q0 -92 -96 -92h-780q-51 0 -82 32t-31 85zM354 1712q0 35 28 57.5t64 22.5q51 0 99 -35q61 -41 123.5 -106.5t96.5 -115.5 t28 -58q-9 -3 -27 -4q-15 0 -37 3q-47 5 -133 35.5t-154 75.5q-88 53 -88 125z" />
<glyph unicode="&#xc9;" horiz-adv-x="1202" d="M141 117v1089q0 53 31 86t82 33h768q98 0 98 -88v-12q0 -88 -98 -88h-670v-371h518q98 0 99 -84v-6q0 -88 -99 -88h-518v-402h682q96 0 96 -84v-10q0 -92 -96 -92h-780q-51 0 -82 32t-31 85zM463 1477q-6 8 27.5 58t96 115.5t122.5 106.5q53 35 98 35q39 0 65.5 -22.5 t26.5 -57.5q0 -74 -86 -125q-68 -45 -154 -75.5t-133 -35.5q-21 -2 -36 -3q-18 1 -27 4z" />
<glyph unicode="&#xca;" horiz-adv-x="1202" d="M141 117v1089q0 53 31 86t82 33h768q98 0 98 -88v-12q0 -88 -98 -88h-670v-371h518q98 0 99 -84v-6q0 -88 -99 -88h-518v-402h682q96 0 96 -84v-10q0 -92 -96 -92h-780q-51 0 -82 32t-31 85zM346 1526q0 74 121 185.5t166 119.5q45 -8 165 -120t120 -185 q0 -29 -17.5 -47.5t-46.5 -18.5q-43 0 -93 50.5t-130 168.5q-80 -119 -129 -169t-90 -50q-29 0 -47.5 18.5t-18.5 47.5z" />
<glyph unicode="&#xcb;" horiz-adv-x="1202" d="M141 117v1089q0 53 31 86t82 33h768q98 0 98 -88v-12q0 -88 -98 -88h-670v-371h518q98 0 99 -84v-6q0 -88 -99 -88h-518v-402h682q96 0 96 -84v-10q0 -92 -96 -92h-780q-51 0 -82 32t-31 85zM324 1579q0 57 32.5 90t85.5 33q59 0 92 -33t33 -90t-32.5 -89t-88 -32t-89 33 t-33.5 88zM698 1579q0 57 33 90t88 33t89 -33t34 -90q0 -55 -32.5 -88t-86.5 -33q-59 0 -92 32t-33 89z" />
<glyph unicode="&#xcc;" horiz-adv-x="530" d="M160 1712q0 35 27.5 57.5t64.5 22.5q51 0 98 -35q61 -41 124 -106.5t96.5 -115.5t27.5 -58q-16 -6 -63.5 -1t-133.5 35.5t-153 75.5q-88 53 -88 125zM160 88v1149q0 96 90 96h29q92 0 92 -96v-1149q0 -96 -92 -96h-29q-90 0 -90 96z" />
<glyph unicode="&#xcd;" horiz-adv-x="530" d="M160 88v1149q0 96 90 96h29q92 0 92 -96v-1149q0 -96 -92 -96h-29q-90 0 -90 96zM172 1477q-6 8 27.5 58t96 115.5t122.5 106.5q53 35 98 35q39 0 65.5 -22.5t26.5 -57.5q0 -74 -86 -125q-68 -45 -153.5 -75.5t-132.5 -35.5q-21 -2 -37 -3q-18 1 -27 4z" />
<glyph unicode="&#xce;" horiz-adv-x="530" d="M160 88v1149q0 96 90 96h29q92 0 92 -96v-1149q0 -96 -92 -96h-29q-90 0 -90 96zM160 1526q0 74 120.5 185.5t165.5 119.5q45 -8 165 -120t120 -185q0 -29 -17.5 -47.5t-45.5 -18.5q-41 0 -92.5 50.5t-131.5 168.5q-80 -119 -129 -169t-90 -50q-29 0 -47 18.5t-18 47.5z " />
<glyph unicode="&#xcf;" horiz-adv-x="530" d="M160 88v1149q0 96 90 96h29q92 0 92 -96v-1149q0 -96 -92 -96h-29q-90 0 -90 96zM160 1579q0 57 32.5 90t86.5 33q59 0 91.5 -33t32.5 -90t-32.5 -89t-88 -32t-89 33t-33.5 88zM535 1579q0 57 32.5 90t88 33t89 -33t33.5 -90q0 -55 -32.5 -88t-86.5 -33q-59 0 -91.5 32 t-32.5 89z" />
<glyph unicode="&#xd0;" horiz-adv-x="1476" d="M27 655v19q0 72 79 71h109v461q0 53 32 86t81 33h2h2h2h2h2h2h2h2h2h2h2h2h2h2h2h2h2h3h2h2h2h2h2h2h2h2h2h2h2h2h2h2h2h2h2h2h5h2h2h2h2h4h2h2h2h4h2h2h2h4h2h2h4h3h2h4h2h2h4h2h4h2h4h2h4h2h2h4h3h4h2h4h4h2h4h2h4h2h4h2h4h5h2h4h4h2h4h4h2h4h4h2h4h4h3h4h4h4h2h4h4h4 h4h2h4h4h5h4h2h4h4h4h18q338 0 532.5 -176t194.5 -483.5t-198.5 -486.5t-538.5 -179h-2h-2h-2h-2h-2h-2h-2h-2h-2h-2h-2h-2h-2h-2h-3h-2h-2h-2h-2h-2h-2h-2h-2h-2h-2h-2h-2h-2h-2h-2h-2h-2h-2h-2h-5h-2h-2h-2h-2h-4h-2h-2h-2h-2h-4h-2h-2h-4h-2h-2h-4h-3h-2h-4h-2h-2h-4h-2 h-4h-2h-2h-4h-2h-4h-2h-4h-3h-4h-2h-4h-2h-4h-2h-4h-4h-2h-4h-2h-4h-5h-2h-4h-2h-4h-4h-2h-4h-4h-2h-4h-4h-4h-3h-4h-4h-4h-2h-4h-4h-4h-2h-4h-4h-5h-4h-2h-4h-20q-49 0 -83 35t-34 82v465h-109q-79 -1 -79 73zM424 186h238q246 0 380 125t134 353q0 225 -135.5 350 t-376.5 125h-240v-394h358q82 0 82 -71v-19q0 -74 -82 -73h-358v-396z" />
<glyph unicode="&#xd1;" horiz-adv-x="1396" d="M141 88v1126q0 55 26 87t75 32h34q45 0 70 -17.5t57 -62.5l656 -929v913q0 96 88 96h24q86 0 86 -96v-1126q0 -55 -26.5 -87t-71.5 -32h-16q-45 0 -65.5 13t-47.5 50l-690 977v-944q0 -96 -90 -96h-23q-86 0 -86 96zM385 1542q0 80 46 138.5t114 58.5q125 0 295 -154 q45 141 104 141q72 0 72 -73q0 -78 -47 -136.5t-113 -58.5q-131 0 -295 154q-49 -141 -104 -142q-33 0 -52.5 19.5t-19.5 52.5z" />
<glyph unicode="&#xd2;" horiz-adv-x="1517" d="M88 659.5q0 303.5 189.5 498t482.5 194.5q297 0 483.5 -191.5t186.5 -496.5q0 -303 -188.5 -497t-483.5 -194q-297 0 -483.5 191.5t-186.5 495zM301 664q0 -221 129 -362.5t330 -141.5t329 139t128 360.5t-129.5 363.5t-330 142t-328.5 -139t-128 -362zM440 1712 q0 35 28 57.5t64 22.5q51 0 99 -35q61 -41 123.5 -106.5t96.5 -115.5t28 -58q-9 -3 -27 -4q-15 0 -37 3q-47 5 -133 35.5t-154 75.5q-88 53 -88 125z" />
<glyph unicode="&#xd3;" horiz-adv-x="1517" d="M88 659.5q0 303.5 189.5 498t482.5 194.5q297 0 483.5 -191.5t186.5 -496.5q0 -303 -188.5 -497t-483.5 -194q-297 0 -483.5 191.5t-186.5 495zM301 664q0 -221 129 -362.5t330 -141.5t329 139t128 360.5t-129.5 363.5t-330 142t-328.5 -139t-128 -362zM633 1477 q-6 8 27.5 58t96 115.5t122.5 106.5q53 35 98 35q39 0 65.5 -22.5t26.5 -57.5q0 -74 -86 -125q-68 -45 -154 -75.5t-133 -35.5q-21 -2 -36 -3q-18 1 -27 4z" />
<glyph unicode="&#xd4;" horiz-adv-x="1517" d="M88 659.5q0 303.5 189.5 498t482.5 194.5q297 0 483.5 -191.5t186.5 -496.5q0 -303 -188.5 -497t-483.5 -194q-297 0 -483.5 191.5t-186.5 495zM301 664q0 -221 129 -362.5t330 -141.5t329 139t128 360.5t-129.5 363.5t-330 142t-328.5 -139t-128 -362zM473 1526 q0 74 121 185.5t166 119.5q45 -8 164.5 -120t119.5 -185q0 -29 -17 -47.5t-46 -18.5q-43 0 -93 50.5t-130 168.5q-80 -119 -129 -169t-90 -50q-29 0 -47.5 18.5t-18.5 47.5z" />
<glyph unicode="&#xd5;" horiz-adv-x="1517" d="M88 659.5q0 303.5 189.5 498t482.5 194.5q297 0 483.5 -191.5t186.5 -496.5q0 -303 -188.5 -497t-483.5 -194q-297 0 -483.5 191.5t-186.5 495zM301 664q0 -221 129 -362.5t330 -141.5t329 139t128 360.5t-129.5 363.5t-330 142t-328.5 -139t-128 -362zM446 1542 q0 80 46.5 138.5t113.5 58.5q125 0 295 -154q45 141 105 141q72 0 71 -73q0 -78 -47 -136.5t-112 -58.5q-131 0 -295 154q-49 -141 -105 -142q-33 0 -52.5 19.5t-19.5 52.5z" />
<glyph unicode="&#xd6;" horiz-adv-x="1517" d="M88 659.5q0 303.5 189.5 498t482.5 194.5q297 0 483.5 -191.5t186.5 -496.5q0 -303 -188.5 -497t-483.5 -194q-297 0 -483.5 191.5t-186.5 495zM301 664q0 -221 129 -362.5t330 -141.5t329 139t128 360.5t-129.5 363.5t-330 142t-328.5 -139t-128 -362zM451 1579 q0 57 32.5 90t85.5 33q59 0 92 -33t33 -90t-32.5 -89t-88 -32t-89 33t-33.5 88zM825 1579q0 57 33 90t88 33t89 -33t34 -90q0 -55 -32.5 -88t-86.5 -33q-59 0 -92 32t-33 89z" />
<glyph unicode="&#xd7;" horiz-adv-x="1118" d="M195 170q-26 25 -26 52q0 31 34 65l246 250l-246 245q-34 34 -34 66q0 28 26 53l12 12q25 27 52 28q32 0 67 -38l237 -250l236 250q35 38 67 38q28 0 54 -28l10 -12q27 -26 27 -54q0 -31 -33 -65l-246 -245l246 -250q33 -33 33 -64q0 -28 -27 -53l-12 -12 q-24 -26 -52 -27q-32 0 -67 37l-236 250l-237 -250q-33 -37 -66 -37q-27 0 -53 27z" />
<glyph unicode="&#xd8;" horiz-adv-x="1517" d="M86 -2q0 43 49 100l103 113q-147 186 -148 448q0 297 188.5 495t483.5 198q231 0 401 -125l156 174q2 2 6 2q7 0 21 -5q23 -9 43 -33t20 -50q0 -45 -47 -101l-86 -94q154 -188 154 -456q0 -297 -188.5 -494t-483.5 -197q-238 0 -408 129l-43 -47l-86 -96l-43 -47 q-2 -2 -7 -3q-7 0 -20 6q-22 9 -43.5 32.5t-21.5 50.5zM291 664q0 -176 86 -308l653 725q-117 84 -272 84q-211 0 -339 -141t-128 -360zM483 246q119 -86 279 -86q209 0 338 141t129 358q0 182 -92 316q-654 -727 -654 -729z" />
<glyph unicode="&#xd9;" horiz-adv-x="1331" d="M125 539v698q0 96 90 96h29q92 0 92 -96v-692q0 -383 329.5 -383t329.5 385v690q0 96 90 96h33q88 0 88 -96v-694q0 -276 -139 -422t-403.5 -146t-401.5 144t-137 420zM360 1696q0 35 28 57.5t65 22.5q51 0 98 -35q61 -41 123.5 -106.5t96.5 -116t28 -58.5q-9 -3 -27 -3 q-15 0 -37 2q-47 5 -133 36t-153 76q-89 53 -89 125z" />
<glyph unicode="&#xda;" horiz-adv-x="1331" d="M125 539v698q0 96 90 96h29q92 0 92 -96v-692q0 -383 329.5 -383t329.5 385v690q0 96 90 96h33q88 0 88 -96v-694q0 -276 -139 -422t-403.5 -146t-401.5 144t-137 420zM545 1460q-6 8 27.5 58.5t96 116t122.5 106.5q53 35 98 35q39 0 65.5 -22.5t26.5 -57.5 q0 -74 -86 -125q-68 -45 -154 -76t-133 -36q-21 -2 -36 -2q-18 0 -27 3z" />
<glyph unicode="&#xdb;" horiz-adv-x="1331" d="M125 539v698q0 96 90 96h29q92 0 92 -96v-692q0 -383 329.5 -383t329.5 385v690q0 96 90 96h33q88 0 88 -96v-694q0 -276 -139 -422t-403.5 -146t-401.5 144t-137 420zM377 1526q0 74 120.5 185.5t166.5 119.5q45 -8 164.5 -120t119.5 -185q0 -29 -17.5 -47.5 t-45.5 -18.5q-41 0 -92.5 50.5t-130.5 168.5q-80 -119 -129.5 -169t-90.5 -50q-29 0 -47 18.5t-18 47.5z" />
<glyph unicode="&#xdc;" horiz-adv-x="1331" d="M125 539v698q0 96 90 96h29q92 0 92 -96v-692q0 -383 329.5 -383t329.5 385v690q0 96 90 96h33q88 0 88 -96v-694q0 -276 -139 -422t-403.5 -146t-401.5 144t-137 420zM354 1579q0 57 33 90t86 33q59 0 92 -33t33 -90t-33 -89t-88 -32t-89 33t-34 88zM729 1579 q0 57 33 90t88 33t89 -33t34 -90q0 -55 -33 -88t-86 -33q-59 0 -92 32t-33 89z" />
<glyph unicode="&#xdd;" horiz-adv-x="1173" d="M12 1247q-4 8 8.5 27.5t46 39t78.5 19.5q63 0 103 -73l340 -541l340 541q45 74 104 73q41 0 74 -19.5t45 -39t8 -27.5l-467 -702v-457q0 -96 -92 -96h-29q-90 0 -90 96v457zM455 1460q-6 8 27.5 58.5t96 116t121.5 106.5q53 35 99 35q39 0 65.5 -22.5t26.5 -57.5 q0 -74 -86 -125q-68 -45 -154 -76t-133 -36q-21 -2 -36 -2q-18 0 -27 3z" />
<glyph unicode="&#xde;" horiz-adv-x="1177" d="M141 88v1149q0 96 88 96h31q92 0 92 -96v-150h242q248 0 381 -108.5t133 -308.5q0 -207 -132 -314.5t-390 -107.5h-234v-160q0 -96 -92 -96h-31q-88 0 -88 96zM352 418h240q307 0 307 247.5t-303 247.5h-244v-495z" />
<glyph unicode="&#xdf;" horiz-adv-x="1130" d="M125 86v860q0 238 116.5 356.5t340.5 118.5q190 0 304.5 -91t114.5 -243q0 -262 -290 -301q369 -102 368 -430q0 -162 -110.5 -272.5t-272.5 -110.5q-133 0 -207.5 46.5t-74.5 111.5q0 27 14 51.5t28.5 35.5t18.5 9q78 -88 199 -88q84 0 146.5 64.5t62.5 152.5 q0 215 -277 287q-66 18 -93.5 47t-27.5 82q0 55 43 102h12q267 0 267 191q0 88 -61.5 139t-165.5 51q-252 0 -252 -299v-2v-2v-2v-2v-2v-2v-2v-2v-2v-2v-2v-2v-2v-2v-2v-2v-2v-2v-2v-3v-2v-2v-2v-2v-2v-2v-2v-2v-2v-2v-2v-2v-2v-2v-2v-2v-2v-2v-2v-3v-2v-2v-2v-2v-2v-2v-2 v-2v-2v-2v-2v-2v-2v-2v-2v-2v-2v-2v-2v-2v-3v-2v-2v-2v-2v-2v-2v-2v-2v-2v-2v-2v-2v-2v-2v-2v-2v-2v-2v-2v-2v-5v-2v-2v-2v-2v-2v-2v-2v-2v-2v-4v-2v-2v-2v-2v-2v-2v-4v-3v-2v-2v-2v-4v-2v-2v-2v-2v-4v-2v-2v-2v-2v-4v-2v-2v-2v-5v-2v-2v-2v-4v-2v-2v-2v-4v-2v-2v-4v-2v-2 v-4v-2v-3v-4v-2v-2v-2v-4v-2v-4v-2v-2v-4v-2v-2v-4v-2v-3v-4v-2v-4v-2v-2v-4v-2v-4v-2v-2v-4v-2v-4v-2v-5v-2v-2v-4v-2v-4v-2v-4v-2v-4v-2v-4v-2v-2v-5v-2v-4v-2v-4v-2v-4v-2v-4v-2v-4v-4v-2v-4v-3v-4v-2v-4v-2v-4v-2v-4v-2v-4v-4v-2v-4v-2v-5v-2v-4v-4v-2v-4v-2v-4v-4v-2 v-4v-2v-4v-5v-2v-4v-4v-2v-4v-4v-2v-4v-2v-4v-4v-3v-4v-4v-2v-4v-4v-2v-4v-4v-4v-2v-4v-5v-2v-4v-4v-2v-4v-4v-4v-2v-4v-4v-4v-2v-5v-4v-4v-2v-4v-4v-4v-2v-4v-4v-4v-2v-5v-4v-4v-4v-2v-4v-4v-4v-4v-2v-4v-5v-4v-4v-2v-4v-4v-4v-4v-4v-2v-4v-4v-5v-4v-4v-4v-2v-4v-4v-4v-4 v-4v-5v-2v-18q0 -96 -92 -96h-21q-90 0 -90 96z" />
<glyph unicode="&#xe0;" horiz-adv-x="1071" d="M68 258q0 168 161.5 248t499.5 86h27v20q0 113 -62.5 172.5t-181.5 59.5q-199 0 -283 -168q0 -4 -30.5 1t-62.5 29.5t-32 67.5q0 82 115 159t307 77q209 0 319.5 -102.5t110.5 -291.5v-604q0 -8 -23.5 -15t-49.5 -7q-123 0 -125 160q-55 -80 -148.5 -126.5t-206.5 -46.5 q-156 0 -245.5 77t-89.5 204zM254 1372q0 35 27.5 57.5t64.5 22.5q51 0 98 -35q61 -41 124 -106.5t96.5 -115.5t27.5 -58q-16 -6 -63 -1t-133 35.5t-154 75.5q-88 53 -88 125zM266 266q0 -66 49.5 -104.5t137.5 -38.5q133 0 218 74.5t85 191.5v76l-56 -2 q-221 -8 -327.5 -53.5t-106.5 -143.5z" />
<glyph unicode="&#xe1;" horiz-adv-x="1071" d="M68 258q0 168 161.5 248t499.5 86h27v20q0 113 -62.5 172.5t-181.5 59.5q-199 0 -283 -168q0 -4 -30.5 1t-62.5 29.5t-32 67.5q0 82 115 159t307 77q209 0 319.5 -102.5t110.5 -291.5v-604q0 -8 -23.5 -15t-49.5 -7q-123 0 -125 160q-55 -80 -148.5 -126.5t-206.5 -46.5 q-156 0 -245.5 77t-89.5 204zM266 266q0 -66 49.5 -104.5t137.5 -38.5q133 0 218 74.5t85 191.5v76l-56 -2q-221 -8 -327.5 -53.5t-106.5 -143.5zM381 1137q-6 8 27.5 58t96 115.5t122.5 106.5q53 35 98 35q39 0 65.5 -22.5t26.5 -57.5q0 -74 -86 -125q-68 -45 -153.5 -75.5 t-133.5 -35.5q-21 -2 -36 -3q-18 1 -27 4z" />
<glyph unicode="&#xe2;" horiz-adv-x="1071" d="M68 258q0 168 161.5 248t499.5 86h27v20q0 113 -62.5 172.5t-181.5 59.5q-199 0 -283 -168q0 -4 -30.5 1t-62.5 29.5t-32 67.5q0 82 115 159t307 77q209 0 319.5 -102.5t110.5 -291.5v-604q0 -8 -23.5 -15t-49.5 -7q-123 0 -125 160q-55 -80 -148.5 -126.5t-206.5 -46.5 q-156 0 -245.5 77t-89.5 204zM250 1186q0 74 121 185.5t166 119.5q45 -8 164.5 -119.5t119.5 -185.5q0 -29 -17.5 -47.5t-45.5 -18.5q-41 0 -92.5 50.5t-130.5 168.5q-80 -119 -129.5 -169t-90.5 -50q-29 0 -47 18.5t-18 47.5zM266 266q0 -66 49.5 -104.5t137.5 -38.5 q133 0 218 74.5t85 191.5v76l-56 -2q-221 -8 -327.5 -53.5t-106.5 -143.5z" />
<glyph unicode="&#xe3;" horiz-adv-x="1071" d="M68 258q0 168 161.5 248t499.5 86h27v20q0 113 -62.5 172.5t-181.5 59.5q-199 0 -283 -168q0 -4 -30.5 1t-62.5 29.5t-32 67.5q0 82 115 159t307 77q209 0 319.5 -102.5t110.5 -291.5v-604q0 -8 -23.5 -15t-49.5 -7q-123 0 -125 160q-55 -80 -148.5 -126.5t-206.5 -46.5 q-156 0 -245.5 77t-89.5 204zM219 1202q0 80 46 138.5t114 58.5q125 0 295 -154q45 141 104 141q72 0 72 -73q0 -78 -47 -136.5t-113 -58.5q-131 0 -295 154q-49 -141 -104 -142q-33 0 -52.5 19.5t-19.5 52.5zM266 266q0 -66 49.5 -104.5t137.5 -38.5q133 0 218 74.5 t85 191.5v76l-56 -2q-221 -8 -327.5 -53.5t-106.5 -143.5z" />
<glyph unicode="&#xe4;" horiz-adv-x="1071" d="M68 258q0 168 161.5 248t499.5 86h27v20q0 113 -62.5 172.5t-181.5 59.5q-199 0 -283 -168q0 -4 -30.5 1t-62.5 29.5t-32 67.5q0 82 115 159t307 77q209 0 319.5 -102.5t110.5 -291.5v-604q0 -8 -23.5 -15t-49.5 -7q-123 0 -125 160q-55 -80 -148.5 -126.5t-206.5 -46.5 q-156 0 -245.5 77t-89.5 204zM223 1239q0 57 33 90t86 33q59 0 92 -33t33 -90t-33 -89t-88 -32t-89 33t-34 88zM266 266q0 -66 49.5 -104.5t137.5 -38.5q133 0 218 74.5t85 191.5v76l-56 -2q-221 -8 -327.5 -53.5t-106.5 -143.5zM598 1239q0 57 33 90t88 33t89 -33t34 -90 q0 -55 -33 -88t-86 -33q-59 0 -92 32t-33 89z" />
<glyph unicode="&#xe5;" horiz-adv-x="1071" d="M68 258q0 168 161.5 248t499.5 86h27v20q0 113 -62.5 172.5t-181.5 59.5q-199 0 -283 -168q0 -4 -30.5 1t-62.5 29.5t-32 67.5q0 82 115 159t307 77q209 0 319.5 -102.5t110.5 -291.5v-604q0 -8 -23.5 -15t-49.5 -7q-123 0 -125 160q-55 -80 -148.5 -126.5t-206.5 -46.5 q-156 0 -245.5 77t-89.5 204zM266 266q0 -66 49.5 -104.5t137.5 -38.5q133 0 218 74.5t85 191.5v76l-56 -2q-221 -8 -327.5 -53.5t-106.5 -143.5zM285 1361.5q0 104.5 70.5 175.5t176.5 71q109 0 177.5 -70t68.5 -176q0 -104 -70.5 -174t-177.5 -70q-109 0 -177 69.5 t-68 174zM406 1362q0 -55 36.5 -94t87.5 -39q55 0 91 38t36 95t-36.5 97t-90 40t-89 -39t-35.5 -98z" />
<glyph unicode="&#xe6;" horiz-adv-x="1775" d="M68 258q0 168 161.5 248t499.5 86h27v20q0 113 -62.5 173.5t-181.5 60.5q-197 0 -283 -170q0 -4 -30.5 1t-62.5 29.5t-32 67.5q0 82 113 159t299 77q256 0 352 -181q129 180 371 181q213 0 344 -137.5t131 -358.5v-16q-2 -33 -15 -46.5t-46 -13.5h-727q10 -135 102 -220 t232 -85q213 0 311 164q2 4 27.5 -3t51 -32.5t25.5 -64.5q0 -76 -116.5 -150t-303.5 -74q-313 0 -434 240q-53 -106 -163.5 -171t-251.5 -65q-156 0 -247 77t-91 204zM266 266q0 -66 49.5 -104.5t137.5 -38.5q133 0 218 74.5t85 191.5v76l-56 -2q-221 -8 -327.5 -53.5 t-106.5 -143.5zM928 575h588q-8 129 -82 205t-195 76t-207 -78t-104 -203z" />
<glyph unicode="&#xe7;" horiz-adv-x="1056" d="M66 494q0 223 145 369.5t367 146.5q197 0 309 -92.5t112 -180.5q0 -37 -28.5 -61.5t-58 -29.5t-33.5 1q-80 193 -297 193q-139 0 -231.5 -98.5t-92.5 -247.5q0 -152 92 -251.5t232 -99.5q217 0 297 193q8 2 34.5 0t56 -27.5t29.5 -64.5q0 -86 -112.5 -178.5t-308.5 -92.5 q-223 0 -367.5 147t-144.5 374zM365 -420l108 242q14 31 23.5 45t30 24.5t55.5 10.5h18q41 0 67.5 -19.5t26.5 -52.5v-10q0 -29 -65 -94l-162 -185q-15 -14 -39 -14q-14 0 -32 5q-35 10 -35 33q1 7 4 15z" />
<glyph unicode="&#xe8;" horiz-adv-x="1105" d="M66 487q0 225 143 374t360 149q213 0 343 -137.5t130 -358.5v-16q0 -33 -13 -46.5t-48 -13.5h-725q10 -135 102.5 -220t231.5 -85q213 0 309 164q4 4 28.5 -3t51.5 -32.5t27 -64.5q0 -76 -118 -150t-302 -74q-233 0 -376.5 141.5t-143.5 372.5zM256 575h590 q-8 129 -82 205t-197 76q-121 0 -207 -79t-104 -202zM258 1372q0 35 27.5 57.5t64.5 22.5q51 0 99 -35q61 -41 123.5 -106.5t96 -115.5t27.5 -58q-9 -3 -27 -4q-15 0 -36 3q-47 5 -133 35.5t-154 75.5q-88 53 -88 125z" />
<glyph unicode="&#xe9;" horiz-adv-x="1105" d="M66 487q0 225 143 374t360 149q213 0 343 -137.5t130 -358.5v-16q0 -33 -13 -46.5t-48 -13.5h-725q10 -135 102.5 -220t231.5 -85q213 0 309 164q4 4 28.5 -3t51.5 -32.5t27 -64.5q0 -76 -118 -150t-302 -74q-233 0 -376.5 141.5t-143.5 372.5zM256 575h590 q-8 129 -82 205t-197 76q-121 0 -207 -79t-104 -202zM414 1137q-6 8 27.5 58t96 115.5t121.5 106.5q53 35 99 35q39 0 65.5 -22.5t26.5 -57.5q0 -74 -86 -125q-68 -45 -154 -75.5t-133 -35.5q-21 -2 -36 -3q-18 1 -27 4z" />
<glyph unicode="&#xea;" horiz-adv-x="1105" d="M66 487q0 225 143 374t360 149q213 0 343 -137.5t130 -358.5v-16q0 -33 -13 -46.5t-48 -13.5h-725q10 -135 102.5 -220t231.5 -85q213 0 309 164q4 4 28.5 -3t51.5 -32.5t27 -64.5q0 -76 -118 -150t-302 -74q-233 0 -376.5 141.5t-143.5 372.5zM256 575h590 q-8 129 -82 205t-197 76q-121 0 -207 -79t-104 -202zM283 1186q0 74 120.5 185.5t165.5 119.5q45 -8 165 -119.5t120 -185.5q0 -29 -17.5 -47.5t-45.5 -18.5q-41 0 -92.5 50.5t-131.5 168.5q-80 -119 -129 -169t-90 -50q-29 0 -47 18.5t-18 47.5z" />
<glyph unicode="&#xeb;" horiz-adv-x="1105" d="M66 487q0 225 143 374t360 149q213 0 343 -137.5t130 -358.5v-16q0 -33 -13 -46.5t-48 -13.5h-725q10 -135 102.5 -220t231.5 -85q213 0 309 164q4 4 28.5 -3t51.5 -32.5t27 -64.5q0 -76 -118 -150t-302 -74q-233 0 -376.5 141.5t-143.5 372.5zM256 575h590 q-8 129 -82 205t-197 76q-121 0 -207 -79t-104 -202zM260 1239q0 57 33 90t86 33q59 0 92 -33t33 -90t-33 -89t-88 -32t-89 33t-34 88zM635 1239q0 57 32.5 90t88 33t89.5 -33t34 -90q0 -55 -33 -88t-86 -33q-59 0 -92 32t-33 89z" />
<glyph unicode="&#xec;" horiz-adv-x="471" d="M133 1372q0 35 27.5 57.5t64.5 22.5q51 0 99 -35q61 -41 123.5 -106.5t96.5 -115.5t27 -58q-16 -6 -63 -1t-133 35.5t-154 75.5q-88 53 -88 125zM133 88v809q0 98 92 98h21q90 0 90 -98v-809q0 -96 -90 -96h-21q-92 0 -92 96z" />
<glyph unicode="&#xed;" horiz-adv-x="471" d="M133 88v809q0 98 92 98h21q90 0 90 -98v-809q0 -96 -90 -96h-21q-92 0 -92 96zM145 1137q-6 8 28 58t96.5 115.5t121.5 106.5q53 35 98 35q39 0 66 -22.5t27 -57.5q0 -74 -86 -125q-68 -45 -154 -75.5t-133 -35.5q-21 -2 -37 -3q-18 1 -27 4z" />
<glyph unicode="&#xee;" horiz-adv-x="471" d="M133 88v809q0 98 92 98h21q90 0 90 -98v-809q0 -96 -90 -96h-21q-92 0 -92 96zM133 1186q0 74 121 185.5t166 119.5q45 -8 165 -119.5t120 -185.5q0 -29 -17.5 -47.5t-46.5 -18.5q-43 0 -93 50.5t-130 168.5q-80 -119 -129 -169t-90 -50q-29 0 -47.5 18.5t-18.5 47.5z " />
<glyph unicode="&#xef;" horiz-adv-x="471" d="M133 88v809q0 98 92 98h21q90 0 90 -98v-809q0 -96 -90 -96h-21q-92 0 -92 96zM133 1239q0 57 33 90t86 33q59 0 92 -33t33 -90t-33 -89t-88 -32t-89 33t-34 88zM508 1239q0 57 32.5 90t88 33t89.5 -33t34 -90q0 -55 -33 -88t-86 -33q-59 0 -92 32t-33 89z" />
<glyph unicode="&#xf0;" horiz-adv-x="1187" d="M78 449q0 205 133 331.5t348 126.5q111 0 203 -48t141 -118q-45 250 -241 402l-234 -129q-30 -17 -53 -17q-35 0 -53 39l-5 11q-10 19 -10 35q0 38 51 67l154 82q-141 63 -305 72q-2 6 -1 35.5t43 64.5t107 35q176 0 353 -105l215 117q26 14 47 14q36 0 59 -39l6 -6 q13 -19 13 -36q0 -37 -56 -66q-154 -82 -155 -82q270 -248 270 -655q0 -283 -145.5 -445t-384.5 -162q-227 0 -363.5 127.5t-136.5 348.5zM276 451q0 -145 82 -228.5t222 -83.5q150 0 235.5 105.5t85.5 271.5v68q-35 68 -123 118t-184 50q-154 0 -236 -79t-82 -222z" />
<glyph unicode="&#xf1;" horiz-adv-x="1148" d="M125 88v885q0 4 9 9t27.5 9t37.5 4q119 0 127 -159q115 174 327 174q188 0 284.5 -116t96.5 -306v-500q0 -96 -90 -96h-22q-90 0 -91 96v475q0 125 -60 196.5t-167 71.5q-94 0 -165.5 -46t-110.5 -126v-571q0 -96 -90 -96h-23q-90 0 -90 96zM254 1202q0 80 46 138.5 t114 58.5q125 0 295 -154q45 141 104 141q72 0 72 -73q0 -78 -47 -136.5t-113 -58.5q-131 0 -295 154q-49 -141 -104 -142q-33 0 -52.5 19.5t-19.5 52.5z" />
<glyph unicode="&#xf2;" horiz-adv-x="1163" d="M66 494q0 227 145 371.5t373 144.5q225 0 369.5 -146.5t144.5 -374.5q0 -225 -144.5 -370.5t-371.5 -145.5q-229 0 -372.5 146t-143.5 375zM252 493.5q0 -151.5 94 -253t235.5 -101.5t234.5 99.5t93 250.5q0 154 -92 254.5t-235 100.5q-141 0 -235.5 -99.5t-94.5 -251z M268 1372q0 35 28 57.5t64 22.5q51 0 99 -35q61 -41 123.5 -106.5t96.5 -115.5t28 -58q-9 -3 -27 -4q-15 0 -37 3q-47 5 -133 35.5t-154 75.5q-88 53 -88 125z" />
<glyph unicode="&#xf3;" horiz-adv-x="1163" d="M66 494q0 227 145 371.5t373 144.5q225 0 369.5 -146.5t144.5 -374.5q0 -225 -144.5 -370.5t-371.5 -145.5q-229 0 -372.5 146t-143.5 375zM252 493.5q0 -151.5 94 -253t235.5 -101.5t234.5 99.5t93 250.5q0 154 -92 254.5t-235 100.5q-141 0 -235.5 -99.5t-94.5 -251z M469 1137q-6 8 27.5 58t96 115.5t122.5 106.5q53 35 98 35q39 0 65.5 -22.5t26.5 -57.5q0 -74 -86 -125q-68 -45 -153.5 -75.5t-133.5 -35.5q-21 -2 -36 -3q-18 1 -27 4z" />
<glyph unicode="&#xf4;" horiz-adv-x="1163" d="M66 494q0 227 145 371.5t373 144.5q225 0 369.5 -146.5t144.5 -374.5q0 -225 -144.5 -370.5t-371.5 -145.5q-229 0 -372.5 146t-143.5 375zM252 493.5q0 -151.5 94 -253t235.5 -101.5t234.5 99.5t93 250.5q0 154 -92 254.5t-235 100.5q-141 0 -235.5 -99.5t-94.5 -251z M301 1186q0 74 121 185.5t166 119.5q45 -8 164.5 -119.5t119.5 -185.5q0 -29 -17 -47.5t-46 -18.5q-43 0 -93 50.5t-130 168.5q-80 -119 -129 -169t-90 -50q-29 0 -47.5 18.5t-18.5 47.5z" />
<glyph unicode="&#xf5;" horiz-adv-x="1163" d="M66 494q0 227 145 371.5t373 144.5q225 0 369.5 -146.5t144.5 -374.5q0 -225 -144.5 -370.5t-371.5 -145.5q-229 0 -372.5 146t-143.5 375zM252 493.5q0 -151.5 94 -253t235.5 -101.5t234.5 99.5t93 250.5q0 154 -92 254.5t-235 100.5q-141 0 -235.5 -99.5t-94.5 -251z M274 1202q0 80 46.5 138.5t113.5 58.5q125 0 295 -154q45 141 105 141q72 0 71 -73q0 -78 -47 -136.5t-113 -58.5q-131 0 -294 154q-49 -141 -105 -142q-33 0 -52.5 19.5t-19.5 52.5z" />
<glyph unicode="&#xf6;" horiz-adv-x="1163" d="M66 494q0 227 145 371.5t373 144.5q225 0 369.5 -146.5t144.5 -374.5q0 -225 -144.5 -370.5t-371.5 -145.5q-229 0 -372.5 146t-143.5 375zM252 493.5q0 -151.5 94 -253t235.5 -101.5t234.5 99.5t93 250.5q0 154 -92 254.5t-235 100.5q-141 0 -235.5 -99.5t-94.5 -251z M279 1239q0 57 32.5 90t85.5 33q59 0 92 -33t33 -90t-32.5 -89t-88 -32t-89 33t-33.5 88zM653 1239q0 57 33 90t88 33t89 -33t34 -90q0 -55 -33 -88t-86 -33q-59 0 -92 32t-33 89z" />
<glyph unicode="&#xf8;" horiz-adv-x="1163" d="M63 -18q0 39 48 92l77 86q-111 139 -110 329q0 219 147.5 370t364.5 151q158 0 291 -90l141 157q1 1 5 2q7 0 21 -6q22 -8 42 -27.5t20 -44.5q0 -39 -45 -90l-80 -86q113 -141 113 -331q0 -219 -147.5 -370t-364.5 -151q-162 0 -291 90l-143 -157q-1 -1 -5 -2q-7 0 -21 6 q-22 8 -42.5 27.5t-20.5 44.5zM262 492q0 -111 60 -203l448 493q-80 61 -182 62q-141 0 -233.5 -100t-92.5 -252zM406 203q84 -63 182 -64q141 0 233 100.5t92 252.5q0 117 -59 204z" />
<glyph unicode="&#xf9;" horiz-adv-x="1148" d="M117 397v500q0 98 88 98h22q90 0 90 -98v-475q0 -127 61.5 -198.5t174.5 -71.5q184 0 270 174v571q0 98 88 98h23q90 0 90 -98v-883q0 -4 -9 -9t-26.5 -9t-36.5 -4q-121 0 -129 155q-117 -172 -327 -172q-188 0 -283.5 114.5t-95.5 307.5zM254 1372q0 35 27.5 57.5 t64.5 22.5q51 0 98 -35q61 -41 124 -106.5t96.5 -115.5t27.5 -58q-9 -3 -27 -4q-15 0 -36 3q-47 5 -133 35.5t-154 75.5q-88 53 -88 125z" />
<glyph unicode="&#xfa;" horiz-adv-x="1148" d="M117 397v500q0 98 88 98h22q90 0 90 -98v-475q0 -127 61.5 -198.5t174.5 -71.5q184 0 270 174v571q0 98 88 98h23q90 0 90 -98v-883q0 -4 -9 -9t-26.5 -9t-36.5 -4q-121 0 -129 155q-117 -172 -327 -172q-188 0 -283.5 114.5t-95.5 307.5zM471 1137q-6 8 27.5 58 t96 115.5t122.5 106.5q53 35 98 35q39 0 65.5 -22.5t26.5 -57.5q0 -74 -86 -125q-68 -45 -153.5 -75.5t-132.5 -35.5q-21 -2 -37 -3q-18 1 -27 4z" />
<glyph unicode="&#xfb;" horiz-adv-x="1148" d="M117 397v500q0 98 88 98h22q90 0 90 -98v-475q0 -127 61.5 -198.5t174.5 -71.5q184 0 270 174v571q0 98 88 98h23q90 0 90 -98v-883q0 -4 -9 -9t-26.5 -9t-36.5 -4q-121 0 -129 155q-117 -172 -327 -172q-188 0 -283.5 114.5t-95.5 307.5zM291 1186q0 74 120.5 185.5 t166.5 119.5q45 -8 164.5 -119.5t119.5 -185.5q0 -29 -17.5 -47.5t-45.5 -18.5q-41 0 -92.5 50.5t-131.5 168.5q-80 -119 -129 -169t-90 -50q-29 0 -47 18.5t-18 47.5z" />
<glyph unicode="&#xfc;" horiz-adv-x="1148" d="M117 397v500q0 98 88 98h22q90 0 90 -98v-475q0 -127 61.5 -198.5t174.5 -71.5q184 0 270 174v571q0 98 88 98h23q90 0 90 -98v-883q0 -4 -9 -9t-26.5 -9t-36.5 -4q-121 0 -129 155q-117 -172 -327 -172q-188 0 -283.5 114.5t-95.5 307.5zM270 1239q0 57 33 90t86 33 q59 0 92 -33t33 -90t-32.5 -89t-88 -32t-89.5 33t-34 88zM645 1239q0 57 33 90t88 33t89 -33t34 -90q0 -55 -33 -88t-86 -33q-59 0 -92 32t-33 89z" />
<glyph unicode="&#xfd;" horiz-adv-x="1019" d="M27 936q-2 6 10 20.5t38.5 26.5t57.5 12q45 0 75 -25.5t54 -88.5l266 -680l236 676q37 119 127 118q25 0 52.5 -12t41.5 -24.5t12 -18.5l-465 -1227q-41 -113 -124 -112q-27 0 -53.5 12t-41 24.5t-12.5 18.5l164 399q-66 6 -86 58zM395 1120q-6 8 28 58.5t96.5 116 t121.5 106.5q53 35 98 35q39 0 65.5 -22.5t26.5 -57.5q0 -74 -86 -125q-68 -45 -153.5 -76t-132.5 -36q-21 -2 -37 -2q-18 0 -27 3z" />
<glyph unicode="&#xfe;" horiz-adv-x="1214" d="M125 -305v1689q0 4 9 9.5t27.5 9.5t37.5 4q129 0 129 -174v-410q129 186 344 187q201 0 331 -142.5t130 -373.5q0 -233 -130.5 -377t-336.5 -144q-113 0 -202 49.5t-136 122.5v-450q0 -96 -90 -96h-23q-90 0 -90 96zM328 395q14 -111 100 -182.5t201 -71.5 q137 0 222 96.5t85 254.5q0 154 -85 252t-218 98q-217 0 -305 -199v-248z" />
<glyph unicode="&#xff;" horiz-adv-x="1019" d="M27 936q-2 6 10 20.5t38.5 26.5t57.5 12q45 0 75 -25.5t54 -88.5l266 -680l236 676q37 119 127 118q25 0 52.5 -12t41.5 -24.5t12 -18.5l-465 -1227q-41 -113 -124 -112q-27 0 -53.5 12t-41 24.5t-12.5 18.5l164 399q-66 6 -86 58zM211 1239q0 57 32.5 90t86.5 33 q59 0 92 -33t33 -90t-33 -89t-88 -32t-89 33t-34 88zM586 1239q0 57 32.5 90t88 33t89 -33t33.5 -90q0 -55 -32.5 -88t-85.5 -33q-59 0 -92 32t-33 89z" />
<glyph unicode="&#x152;" horiz-adv-x="2111" d="M88 659.5q0 303.5 189.5 498t482.5 194.5q98 0 198 -27h973q98 0 99 -88v-12q0 -88 -99 -88h-690q160 -137 178 -371h361q98 0 98 -84v-6q0 -88 -98 -88h-359q-12 -254 -182 -402h705q96 0 96 -84v-10q0 -92 -96 -92h-986q-100 -27 -200 -27q-297 0 -483.5 191.5 t-186.5 495zM301 664q0 -221 129 -362.5t330 -141.5t329 139t128 360.5t-129.5 363.5t-330 142t-328.5 -139t-128 -362z" />
<glyph unicode="&#x153;" horiz-adv-x="1949" d="M66 494q0 227 145 371.5t373 144.5q135 0 243.5 -60.5t171.5 -167.5q63 106 171 167t243 61q213 0 343 -137.5t130 -358.5v-16q0 -33 -13 -46.5t-48 -13.5h-725q10 -135 102 -220t232 -85q213 0 309 164q4 4 28.5 -3t51 -32.5t26.5 -64.5q0 -76 -117.5 -150t-301.5 -74 q-305 0 -437 222q-63 -104 -170.5 -163t-240.5 -59q-229 0 -372.5 146t-143.5 375zM252 493.5q0 -151.5 94 -253t235.5 -101.5t234.5 99.5t93 250.5q0 154 -92 254.5t-235 100.5q-141 0 -235.5 -99.5t-94.5 -251zM1100 575h590q-8 129 -82 205t-197 76q-121 0 -207 -79 t-104 -202z" />
<glyph unicode="&#x178;" horiz-adv-x="1173" d="M12 1247q-4 8 8.5 27.5t46 39t78.5 19.5q63 0 103 -73l340 -541l340 541q45 74 104 73q41 0 74 -19.5t45 -39t8 -27.5l-467 -702v-457q0 -96 -92 -96h-29q-90 0 -90 96v457zM281 1579q0 57 32.5 90t85.5 33q59 0 92 -33t33 -90t-32.5 -89t-88 -32t-89 33t-33.5 88z M655 1579q0 57 33 90t88 33t89 -33t34 -90q0 -55 -32.5 -88t-86.5 -33q-59 0 -92 32t-33 89z" />
<glyph unicode="&#x2c6;" d="M225 1186q0 74 121 185.5t166 119.5q45 -8 165 -119.5t120 -185.5q0 -29 -17.5 -47.5t-46.5 -18.5q-41 0 -92 50.5t-131 168.5q-80 -119 -129 -169t-90 -50q-29 0 -47.5 18.5t-18.5 47.5z" />
<glyph unicode="&#x2dc;" d="M197 1202q0 80 46 138.5t113 58.5q125 0 295 -154q45 141 105 141q72 0 71 -73q0 -78 -47 -136.5t-112 -58.5q-131 0 -295 154q-49 -141 -105 -142q-33 0 -52 19.5t-19 52.5z" />
<glyph unicode="&#x2013;" horiz-adv-x="1103" d="M84 489v19q0 78 88 78h756q88 0 88 -78v-19q0 -78 -88 -77h-756q-88 -1 -88 77z" />
<glyph unicode="&#x2014;" horiz-adv-x="1443" d="M84 489v19q0 78 88 78h1100q88 0 88 -78v-19q0 -78 -88 -77h-1100q-88 -1 -88 77z" />
<glyph unicode="&#x2018;" horiz-adv-x="442" d="M74 940v8q0 57 49 125l168 260q15 20 39 20q13 0 29 -5q36 -13 37 -43q0 -8 -3 -17l-106 -348q-16 -53 -37 -74.5t-70 -21.5h-18q-39 0 -63.5 24.5t-24.5 71.5z" />
<glyph unicode="&#x2019;" horiz-adv-x="442" d="M49 907l109 348q16 55 36.5 76t69.5 21h19q86 0 86 -97v-8q0 -61 -47 -125l-170 -260q-15 -20 -40 -20q-13 0 -29 6q-36 13 -36 42q-1 8 2 17z" />
<glyph unicode="&#x201a;" horiz-adv-x="442" d="M33 -201l108 348q16 55 37 76t70 21h18q86 0 86 -97v-8q0 -61 -47 -125l-170 -260q-15 -20 -39 -20q-13 0 -29 6q-36 13 -37 42q0 8 3 17z" />
<glyph unicode="&#x201c;" horiz-adv-x="800" d="M74 940v8q0 55 49 125l168 260q16 20 41 20q13 0 28 -5q35 -13 36 -43q0 -8 -3 -17l-108 -348q-14 -53 -35 -74.5t-70 -21.5h-20q-39 0 -62.5 24.5t-23.5 71.5zM432 940v8q0 59 49 125l168 260q16 19 41 19q13 0 29 -5q35 -12 35 -42q0 -8 -2 -17l-109 -348 q-14 -53 -34.5 -74.5t-71.5 -21.5h-19q-39 0 -62.5 24.5t-23.5 71.5z" />
<glyph unicode="&#x201d;" horiz-adv-x="800" d="M47 907l111 348q14 53 34.5 75t69.5 22h19q86 0 86 -97v-8q0 -61 -48 -125l-169 -260q-13 -20 -39 -20q-13 0 -29 6q-37 13 -37 43q-1 7 2 16zM406 907l110 348q12 39 20.5 55.5t29 29t55.5 12.5h20q39 0 61.5 -24.5t22.5 -72.5v-8q0 -59 -47 -125l-168 -260 q-15 -20 -40 -20q-13 0 -30 6q-37 13 -37 43q0 7 3 16z" />
<glyph unicode="&#x201e;" horiz-adv-x="800" d="M31 -201l110 348q14 53 35 75t70 22h18q86 0 86 -97v-8q0 -61 -47 -125l-170 -260q-13 -20 -38 -20q-13 0 -29 6q-37 13 -38 43q0 7 3 16zM389 -201l111 348q12 39 20 55.5t28.5 29t55.5 12.5h21q39 0 61.5 -24.5t22.5 -72.5v-8q0 -59 -47 -125l-168 -260 q-15 -20 -40 -20q-13 0 -30 6q-37 13 -37 43q-1 7 2 16z" />
<glyph unicode="&#x2022;" horiz-adv-x="684" d="M111 497.5q0 98.5 66.5 168t164.5 69.5t165.5 -69.5t67.5 -167.5q0 -96 -68.5 -165t-164.5 -69q-98 0 -164.5 67.5t-66.5 166z" />
<glyph unicode="&#x2026;" horiz-adv-x="1366" d="M102 96v25q0 113 111 112h27q113 0 112 -112v-25q0 -111 -112 -110h-27q-111 -1 -111 110zM557 96v25q0 113 111 112h26q113 0 113 -112v-25q0 -111 -113 -110h-26q-111 -1 -111 110zM1012 96v25q0 113 110 112h27q115 0 115 -112v-25q0 -111 -115 -110h-27 q-110 -1 -110 110z" />
<glyph unicode="&#x2039;" horiz-adv-x="645" d="M82 499.5q0 18.5 69.5 103.5t168 167t157.5 82h4q33 0 53.5 -20.5t20.5 -51.5v-6q0 -76 -301 -274q301 -203 301 -275v-8q0 -29 -20.5 -49.5t-53.5 -20.5h-4q-59 0 -157.5 82t-168 167t-69.5 103.5z" />
<glyph unicode="&#x203a;" horiz-adv-x="645" d="M92 217v8q0 74 301 275q-301 197 -301 274v6q0 31 19.5 51.5t52.5 20.5h2q59 0 158.5 -82t169 -167t69.5 -103.5t-69.5 -103.5t-169 -167t-158.5 -82h-2q-33 0 -52.5 20.5t-19.5 49.5z" />
<glyph unicode="&#x20ac;" horiz-adv-x="1286" d="M61 502v16q0 66 82 66h103v26v107v33h-103q-82 0 -82 65v16q0 63 82 64h119q43 211 184.5 333t344.5 122q186 0 304.5 -83t118.5 -175q0 -37 -25.5 -65t-52 -37t-30.5 -3q-55 94 -131 141.5t-189 47.5q-117 0 -201.5 -75t-119.5 -206h391q80 0 80 -64v-16q0 -66 -80 -65 h-412v-25v-123v-18h412q80 0 80 -66v-16q0 -66 -80 -66h-391q35 -133 122 -209.5t210 -76.5q209 0 313 204q4 6 30.5 -3t53.5 -37.5t27 -65.5q0 -92 -118 -183.5t-304 -91.5q-215 0 -355.5 122t-181.5 341h-119q-82 0 -82 66z" />
<glyph unicode="&#x2122;" horiz-adv-x="1398" d="M35 1264v6q0 57 63 57h432q61 0 62 -57v-6q0 -59 -62 -60h-147v-450q0 -66 -61 -66h-19q-57 0 -57 66v450h-148q-63 1 -63 60zM688 754v510q0 70 62 69h55q51 0 69 -47l123 -301l123 301q18 47 68 47h53q61 0 62 -69v-510q0 -66 -56 -66h-18q-55 0 -55 66v387l-113 -289 q-4 -12 -7 -17.5t-17.5 -10.5t-41.5 -5q-25 0 -38 4t-16 8.5t-7 16.5q-2 2 -2 4l-115 287v-385q0 -66 -51 -66h-23q-55 0 -55 66z" />
<glyph unicode="&#xe000;" horiz-adv-x="995" d="M0 995h995v-995h-995v995z" />
<glyph unicode="&#xfb01;" horiz-adv-x="1191" d="M37 897v14q0 74 88 74h78v74q0 362 313 362q106 0 162.5 -39t56.5 -94q0 -27 -11 -49t-22.5 -31.5t-13.5 -7.5q-57 57 -147 57q-76 0 -110 -48t-34 -152v-72h207q88 0 88 -76v-14q0 -76 -88 -76h-201v-731q0 -96 -90 -96h-20q-90 0 -90 96v731h-78q-88 0 -88 78z M838 1309q0 55 31.5 84.5t88.5 29.5q121 0 121 -114q0 -113 -121 -113q-57 0 -88.5 30t-31.5 83zM856 88v809q0 98 90 98h23q90 0 90 -98v-809q0 -96 -90 -96h-21q-92 0 -92 96z" />
<glyph unicode="&#xfb02;" horiz-adv-x="1191" d="M37 897v14q0 74 88 74h78v74q0 362 313 362q106 0 162.5 -39t56.5 -94q0 -27 -11 -49t-22.5 -31.5t-13.5 -7.5q-57 57 -147 57q-76 0 -110 -48t-34 -152v-72h207q88 0 88 -76v-14q0 -76 -88 -76h-201v-731q0 -96 -90 -96h-20q-90 0 -90 96v731h-78q-88 0 -88 78zM856 88 v1296q0 4 10.5 9.5t27.5 9.5t36 4q129 0 129 -174v-1145q0 -96 -90 -96h-21q-92 0 -92 96z" />
<glyph unicode="&#xfb03;" horiz-adv-x="1916" d="M16 897v14q0 74 90 74h115v74q0 362 314 362q109 0 165 -37.5t56 -95.5q0 -27 -11.5 -49t-23.5 -31.5t-14 -7.5q-57 57 -148 57q-74 0 -107.5 -48t-33.5 -152v-72h166q90 0 90 -76v-14q0 -76 -90 -76h-162v-731q0 -96 -88 -96h-21q-92 0 -92 96v731h-115q-90 0 -90 78z M739 897v14q0 74 90 74h115v74q0 362 313 362q109 0 165.5 -37.5t56.5 -95.5q0 -27 -11.5 -49t-23.5 -31.5t-14 -7.5q-57 57 -148 57q-74 0 -107.5 -48t-33.5 -152v-72h166q90 0 90 -76v-14q0 -76 -90 -76h-162v-731q0 -96 -88 -96h-21q-92 0 -92 96v731h-115q-90 0 -90 78z M1561 1309q0 115 122 114q119 0 119 -114q0 -113 -121 -113q-57 0 -88.5 30t-31.5 83zM1579 88v809q0 98 92 98h21q90 0 90 -98v-809q0 -96 -90 -96h-21q-92 0 -92 96z" />
<glyph unicode="&#xfb04;" horiz-adv-x="1916" d="M16 897v14q0 74 90 74h115v74q0 362 314 362q109 0 165 -37.5t56 -95.5q0 -27 -11.5 -49t-23.5 -31.5t-14 -7.5q-57 57 -148 57q-74 0 -107.5 -48t-33.5 -152v-72h166q90 0 90 -76v-14q0 -76 -90 -76h-162v-731q0 -96 -88 -96h-21q-92 0 -92 96v731h-115q-90 0 -90 78z M739 897v14q0 74 90 74h115v74q0 362 313 362q109 0 165.5 -37.5t56.5 -95.5q0 -27 -11.5 -49t-23.5 -31.5t-14 -7.5q-57 57 -148 57q-74 0 -107.5 -48t-33.5 -152v-72h166q90 0 90 -76v-14q0 -76 -90 -76h-162v-731q0 -96 -88 -96h-21q-92 0 -92 96v731h-115q-90 0 -90 78z M1579 88v1296q0 4 10 9.5t27.5 9.5t36.5 4q129 0 129 -174v-1145q0 -96 -90 -96h-21q-92 0 -92 96z" />
</font>
</defs>
</svg>
